<svg xmlns="http://www.w3.org/2000/svg" width="16" height="8.727" viewBox="0 0 16 8.727">
  <path id="ic_timeline_24px" d="M17,7.455a1.459,1.459,0,0,1-1.455,1.455,1.236,1.236,0,0,1-.371-.051L12.585,11.44a1.285,1.285,0,0,1,.051.378,1.455,1.455,0,1,1-2.909,0,1.285,1.285,0,0,1,.051-.378L7.924,9.585a1.43,1.43,0,0,1-.756,0L3.858,12.9a1.236,1.236,0,0,1,.051.371,1.455,1.455,0,1,1-1.455-1.455,1.236,1.236,0,0,1,.371.051L6.142,8.56a1.285,1.285,0,0,1-.051-.378A1.455,1.455,0,0,1,9,8.182a1.285,1.285,0,0,1-.051.378L10.8,10.415a1.43,1.43,0,0,1,.756,0l2.582-2.589a1.236,1.236,0,0,1-.051-.371,1.455,1.455,0,1,1,2.909,0Z" transform="translate(-1 -6)" fill="#333132"/>
</svg>
