<svg xmlns="http://www.w3.org/2000/svg" width="16" height="13.819" viewBox="0 0 16 13.819">
  <g id="ic_record_voice_over_24px" transform="translate(-1 -2)">
    <circle id="Ellipse_3" data-name="Ellipse 3" cx="3" cy="3" r="3" transform="translate(3.996 4)" fill="#333132"/>
    <path id="Path_3" data-name="Path 3" d="M6.819,11.455C4.877,11.455,1,12.43,1,14.364v1.455H12.637V14.364C12.637,12.43,8.76,11.455,6.819,11.455Zm5.644-7.011L11.241,5.673a2.413,2.413,0,0,1,0,2.829l1.222,1.229a3.722,3.722,0,0,0,0-5.288ZM14.87,2,13.684,3.186a5.8,5.8,0,0,1,0,7.811l1.186,1.186A7.149,7.149,0,0,0,14.87,2Z" fill="#333132"/>
  </g>
</svg>
