<svg xmlns="http://www.w3.org/2000/svg" width="16" height="10.182" viewBox="0 0 16 10.182">
  <path id="ic_people_24px" d="M11.909,9.364A2.182,2.182,0,1,0,9.727,7.182,2.173,2.173,0,0,0,11.909,9.364Zm-5.818,0A2.182,2.182,0,1,0,3.909,7.182,2.173,2.173,0,0,0,6.091,9.364Zm0,1.455C4.4,10.818,1,11.669,1,13.364v1.818H11.182V13.364C11.182,11.669,7.785,10.818,6.091,10.818Zm5.818,0c-.211,0-.451.015-.705.036a3.069,3.069,0,0,1,1.433,2.509v1.818H17V13.364C17,11.669,13.6,10.818,11.909,10.818Z" transform="translate(-1 -5)" fill="#333132"/>
</svg>
