<svg xmlns="http://www.w3.org/2000/svg" width="16" height="16.449" viewBox="0 0 16 16.449">
  <path id="ic_settings_24px" d="M16.383,11.03a6.409,6.409,0,0,0,.058-.806,6.41,6.41,0,0,0-.058-.806l1.735-1.357a.415.415,0,0,0,.1-.526L16.572,4.689a.413.413,0,0,0-.5-.181l-2.048.822a6.009,6.009,0,0,0-1.39-.806L12.32,2.345a.4.4,0,0,0-.4-.345H8.628a.4.4,0,0,0-.4.345L7.912,4.525a6.319,6.319,0,0,0-1.39.806L4.474,4.508a.4.4,0,0,0-.5.181L2.328,7.535a.405.405,0,0,0,.1.526L4.162,9.418a6.522,6.522,0,0,0-.058.806,6.522,6.522,0,0,0,.058.806L2.426,12.387a.415.415,0,0,0-.1.526l1.645,2.846a.413.413,0,0,0,.5.181l2.048-.822a6.009,6.009,0,0,0,1.39.806L8.225,18.1a.4.4,0,0,0,.4.345h3.29a.4.4,0,0,0,.4-.345l.313-2.179a6.319,6.319,0,0,0,1.39-.806l2.048.822a.4.4,0,0,0,.5-.181l1.645-2.846a.415.415,0,0,0-.1-.526ZM10.272,13.1a2.879,2.879,0,1,1,2.879-2.879A2.882,2.882,0,0,1,10.272,13.1Z" transform="translate(-2.271 -2)" fill="#333132"/>
</svg>
