<svg xmlns="http://www.w3.org/2000/svg" width="28" height="28" viewBox="0 0 28 28">
  <g id="Group_694" data-name="Group 694" transform="translate(-2 -16)">
    <path id="Path_1196" data-name="Path 1196" d="M14,0A14,14,0,1,1,0,14,14,14,0,0,1,14,0Z" transform="translate(2 16)" fill="#9d9d9d" opacity="0.2"/>
    <path id="ic_do_not_disturb_alt_24px" d="M10,2a8,8,0,1,0,8,8A8.024,8.024,0,0,0,10,2ZM3.6,10A6.419,6.419,0,0,1,10,3.6a6.3,6.3,0,0,1,3.92,1.36L4.96,13.92A6.3,6.3,0,0,1,3.6,10ZM10,16.4a6.3,6.3,0,0,1-3.92-1.36l8.96-8.96A6.3,6.3,0,0,1,16.4,10,6.419,6.419,0,0,1,10,16.4Z" transform="translate(5.999 20)" fill="#333132"/>
  </g>
</svg>
