<svg xmlns="http://www.w3.org/2000/svg" width="28" height="28" viewBox="0 0 28 28">
  <g id="Group_694" data-name="Group 694" transform="translate(-3.999 -16)">
    <circle id="Ellipse_103" data-name="Ellipse 103" cx="14" cy="14" r="14" transform="translate(3.999 16)" fill="#9d9d9d" opacity="0.2"/>
    <path id="ic_delete_forever_24px" d="M5.778,15.444A1.56,1.56,0,0,0,7.333,17h6.222a1.56,1.56,0,0,0,1.556-1.556V6.111H5.778ZM7.691,9.907l1.1-1.1,1.657,1.649L12.093,8.81l1.1,1.1-1.649,1.649L13.19,13.2l-1.1,1.1-1.649-1.649L8.8,14.3,7.7,13.2l1.649-1.649Zm5.476-6.129L12.389,3H8.5l-.778.778H5V5.333H15.889V3.778Z" transform="translate(7.999 20)"/>
  </g>
</svg>
