<svg xmlns="http://www.w3.org/2000/svg" width="28" height="28" viewBox="0 0 28 28">
  <g id="Group_692" data-name="Group 692" transform="translate(-3 -16)">
    <path id="ic_transfer_within_a_station_24px" d="M14.752,11.149H10.739v1.092h4.013v1.274L16.565,11.7,14.752,9.875ZM7.462,4.413A1.456,1.456,0,1,0,6.005,2.956,1.461,1.461,0,0,0,7.462,4.413ZM4.731,6.889l-2,10.268H4.258l1.274-5.826L7.1,12.788v4.369H8.554v-5.5L7.061,10.166,7.5,7.981a5.082,5.082,0,0,0,3.969,1.893V8.418A3.733,3.733,0,0,1,8.3,6.634L7.607,5.469a1.42,1.42,0,0,0-1.238-.692,1.461,1.461,0,0,0-.546.109L2,6.452V9.875H3.456V7.435l1.274-.546" transform="translate(9.229 19.672)"/>
    <circle id="Ellipse_105" data-name="Ellipse 105" cx="14" cy="14" r="14" transform="translate(3 16)" fill="#8d8d8d" opacity="0.2"/>
  </g>
</svg>
