<svg id="Group_693" data-name="Group 693" xmlns="http://www.w3.org/2000/svg" width="28" height="28" viewBox="0 0 28 28">
  <path id="Path_1196" data-name="Path 1196" d="M14,0A14,14,0,1,1,0,14,14,14,0,0,1,14,0Z" fill="#9d9d9d" opacity="0.2"/>
  <path id="telegram-1" d="M11.949,15.856a.773.773,0,0,0,.72.094.754.754,0,0,0,.471-.546c.565-2.655,1.935-9.374,2.449-11.788a.508.508,0,0,0-.169-.493.52.52,0,0,0-.518-.091C12.176,4.041,3.783,7.191.352,8.46A.534.534,0,0,0,.385,9.476c1.539.46,3.558,1.1,3.558,1.1s.944,2.85,1.436,4.3a.57.57,0,0,0,.392.374.563.563,0,0,0,.527-.135l2.012-1.9S10.633,14.918,11.949,15.856Zm-7.157-5.64,1.091,3.6.242-2.28,6.62-5.971a.18.18,0,0,0,.021-.245.185.185,0,0,0-.244-.042Z" transform="translate(5 5)" fill="#333132" fill-rule="evenodd"/>
</svg>
