<svg xmlns="http://www.w3.org/2000/svg" width="16" height="16" viewBox="0 0 16 16">
  <path id="ic_volume_off_24px" d="M15,11a4,4,0,0,0-2.222-3.582V9.382l2.178,2.178A3.762,3.762,0,0,0,15,11Zm2.222,0a6.082,6.082,0,0,1-.48,2.347l1.342,1.342A7.819,7.819,0,0,0,19,11a8,8,0,0,0-6.222-7.8V5.036A6.227,6.227,0,0,1,17.222,11ZM4.129,3,3,4.129l4.2,4.2H3v5.333H6.556L11,18.111V12.129l3.778,3.778a6.154,6.154,0,0,1-2,1.049v1.831a7.991,7.991,0,0,0,3.28-1.609L17.871,19,19,17.871l-8-8ZM11,3.889,9.142,5.747,11,7.6Z" transform="translate(-3 -3)" fill="#8d8d8d"/>
</svg>
