<svg xmlns="http://www.w3.org/2000/svg" xmlns:xlink="http://www.w3.org/1999/xlink" width="299.051" height="269.74" viewBox="0 0 299.051 269.74">
  <defs>
    <clipPath id="clip-path">
      <path id="Path_1202" data-name="Path 1202" d="M0-72.666H299.051v-269.74H0Z" transform="translate(0 342.406)" fill="none"/>
    </clipPath>
  </defs>
  <g id="Group_659" data-name="Group 659" transform="translate(0 342.406)">
    <g id="Group_658" data-name="Group 658" transform="translate(0 -342.406)" clip-path="url(#clip-path)">
      <g id="Group_656" data-name="Group 656" transform="translate(165.52 0)">
        <path id="Path_1200" data-name="Path 1200" d="M-7.656-13.226l2.17.752A13.611,13.611,0,0,1,.058-9.5C1.783-7.729,2.4-5.264,2.849-3.093c.07.34.157.747.255,1.209,1.741,8.153,3.142,16.724,1.2,20.861A145.715,145.715,0,0,0,24.666,2.935Q14.91-1.855,4.827-5.886a.73.73,0,0,1-.458-.607A.725.725,0,0,1,4.7-7.174C16.915-15.019,32.876-24.3,48.311-33.282c7.876-4.582,15.875-9.234,23.488-13.76-7.294,3.381-15.858,7.218-25.325,11.435C33.408-29.789,22.123-24.763,18.223-22.454c-1.467.868-6.005,2.328-11.261,4.018-4.868,1.565-11.8,3.793-14.618,5.21m-1.3,1.1c-.191.934-.08,4.283,4.6,15.653,2.578,6.264,5.5,12.41,7.063,15.329C5.2,15,2.567,2.681,1.657-1.582c-.1-.467-.187-.878-.258-1.22C.994-4.773.44-7-1.01-8.491A12.493,12.493,0,0,0-5.978-11.1Zm36.18,14.7q9.4,4.7,18.41,10.066C52.329,1.453,61.664-11.683,70.7-24.395c8.2-11.541,16.652-23.433,23.13-33.866Q92.486-57.4,90.7-56.4c-8.447,6.65-20.6,17.66-25.236,22.11L44.129-13.794c-2.231,2.143-4.472,4.34-6.641,6.465-3.365,3.3-6.767,6.632-10.266,9.9M6.7-6.711q9.7,3.931,19.122,8.58C29.442-1.5,32.964-4.952,36.446-8.364c2.17-2.127,4.415-4.326,6.651-6.475L64.427-35.331C68.106-38.865,76.044-46.108,83.379-52.3c-10.6,6.485-22.6,13.462-34.317,20.28C34.137-23.343,18.719-14.375,6.7-6.711M-32.928-21.983l23.477,8.135c1.968-1.412,7.727-3.329,15.956-5.975,4.955-1.594,9.635-3.1,10.958-3.882,3.974-2.352,15.3-7.394,28.4-13.232,10.827-4.821,23.1-10.286,32.713-14.92,2.526-1.216,4.7-2.3,6.568-3.254,2.632-1.625,5.162-3.214,7.568-4.757-24.6,6.1-52.543,14.989-79.613,23.6C-3.18-31.086-18.6-26.178-32.928-21.983m17.075,37.118c.885.3,2.079.808,3.461,1.4,4.156,1.775,10.973,4.687,13.961,3.32C.011,17-3.012,10.679-5.73,4.073c-4.759-11.567-5-15.311-4.639-16.692l-25.21-8.735a.73.73,0,0,1-.494-.707.733.733,0,0,1,.532-.681C-20.62-27.07-4.46-32.212,12.649-37.656,41.283-46.767,70.891-56.188,96.528-62.3a.755.755,0,0,1,.311-.014h.017l0,0h.018l.006,0h0a.739.739,0,0,1,.436.289.737.737,0,0,1,.053.086h0a.725.725,0,0,1,.076.426h0a0,0,0,0,0,0,0,.739.739,0,0,1-.035.146s0,0,0,0v0a.756.756,0,0,1-.059.125c-.013.023-.026.046-.041.069-6.717,11.3-16.217,24.67-25.4,37.6S53.218,2.744,46.528,14.009a.741.741,0,0,1-.458.34.752.752,0,0,1-.566-.084Q36.032,8.588,26.076,3.633A143.353,143.353,0,0,1,3.3,21.324a.745.745,0,0,1-.993-.2C-1.263,22.877-8,20-12.981,17.873c-1.353-.577-2.523-1.078-3.353-1.357" transform="translate(36.074 62.324)" fill="#231e21"/>
      </g>
      <g id="Group_657" data-name="Group 657" transform="translate(0.589 72.1)">
        <path id="Path_1201" data-name="Path 1201" d="M-49.936-1.676S-83.7-16.057-91.292-1.089-17.873,60.7-14.722,37.548s-96.109-7.4-220.578,151.734" transform="translate(235.3 7.897)" fill="none" stroke="#231e21" stroke-width="1.9"/>
      </g>
    </g>
  </g>
</svg>
