<svg xmlns="http://www.w3.org/2000/svg" width="135.551" height="157.589" viewBox="0 0 135.551 157.589">
  <g id="Group_669" data-name="Group 669" transform="translate(-149.084 -485.16)">
    <path id="Path_1206" data-name="Path 1206" d="M241.836,642.748a.905.905,0,0,1-.612-.237c-31.388-28.658-74.115-31.382-74.543-31.405H149.992a.908.908,0,0,1,0-1.816h16.74c.478.025,42.5,2.7,74.2,30.519V537.23l-8.615-1.723v22.536a.908.908,0,0,1-1.149.876l-12.76-3.51v17.586a.909.909,0,0,1-1.115.884l-15.227-3.565v12.068a.911.911,0,0,1-.331.7.9.9,0,0,1-.752.189l-18.389-3.612v8.459a.908.908,0,0,1-1.128.881l-14.9-3.718v12.4a.908.908,0,0,1-.908.908H154.909a.908.908,0,0,1-.908-.908v-29.9a.909.909,0,0,1,.979-.9c.235.018,23.72,1.752,37.924-5.127,23.606-11.433,40.722-43.559,40.892-43.881a.908.908,0,0,1,.8-.485h23.3l-3.483-5.369h-24.7c-1.408,2.645-8.567,15.354-24.311,31.814-19.267,20.143-49.912,17.931-50.22,17.9a.908.908,0,0,1,.073-1.813c26.022,0,50.6-33.409,55.66-40.721H194.9a.908.908,0,0,1-.538-1.639l43.773-32.22a.907.907,0,0,1,1.3.237L255.4,510.2h21.952a.908.908,0,0,1,.908.908v22.6a.908.908,0,0,1-.853.906L249.35,536.3V640.741l27.095-5.214v-24.42H262.6a.908.908,0,0,1-.908-.908V543.092a.908.908,0,0,1,.844-.905l14.758-1.043a.89.89,0,0,1,.683.241.908.908,0,0,1,.289.665v67.242h5.467a.908.908,0,0,1,0,1.816h-5.467v25.17a.908.908,0,0,1-.736.891l-28.911,5.563a.908.908,0,0,1-1.08-.891v-106.4a.907.907,0,0,1,.853-.906l28.057-1.687V512.011H256.579l3.751,5.783a.908.908,0,0,1-.761,1.4H235.14c-2.268,4.122-18.914,33.272-41.445,44.184-13.14,6.364-33.179,5.64-37.878,5.368v28.026h8.928V584.12a.909.909,0,0,1,1.128-.881l14.9,3.718v-8.4a.908.908,0,0,1,1.083-.891l18.389,3.612v-12.11a.908.908,0,0,1,1.115-.884l15.227,3.565V554.218a.908.908,0,0,1,1.149-.875l12.76,3.51V534.4a.908.908,0,0,1,1.086-.89l10.431,2.087a.907.907,0,0,1,.729.89V641.84a.906.906,0,0,1-.907.908ZM263.5,609.291h12.942V543.023l-12.942.915ZM197.66,517.38h14.968a.908.908,0,0,1,.763,1.4A148.593,148.593,0,0,1,195.8,540.2c-7.094,7.113-16.909,15.216-27.767,19.146,10.405-1.353,25.141-5.359,36.059-16.774,17.432-18.224,24.192-31.733,24.258-31.868a.909.909,0,0,1,.815-.507h24.073L238.431,487.37Z" fill="#231f20"/>
  </g>
</svg>
