<svg xmlns="http://www.w3.org/2000/svg" width="146.272" height="44.385" viewBox="0 0 146.272 44.385">
  <g id="Group_343" data-name="Group 343" transform="translate(-1316.535 -82.466)">
    <g id="Group_317" data-name="Group 317" transform="translate(1345.426 82.466)">
      <path id="Path_1152" data-name="Path 1152" d="M1405.588,94.819V82.568h-5.318v2.155a13.077,13.077,0,0,0-16.371,1.359,11.824,11.824,0,0,0-3.689,8.771,12.321,12.321,0,0,0,3.616,9.088,12.09,12.09,0,0,0,8.966,3.665,12.741,12.741,0,0,0,7.479-2.245v13.527h5.318V95.277c0-.077.005-.152.005-.229S1405.589,94.9,1405.588,94.819Zm-7.544,5.8a7.406,7.406,0,0,1-10.31-.025,8.025,8.025,0,0,1-1.906-5.643,7.647,7.647,0,0,1,1.955-5.424,7.315,7.315,0,0,1,10.261,0,8.933,8.933,0,0,1,0,11.092Z" transform="translate(-1380.209 -82.466)" fill="#fff"/>
      <path id="Path_1153" data-name="Path 1153" d="M1454.319,82.466a12.361,12.361,0,0,0-8.99,3.616,11.824,11.824,0,0,0-3.689,8.771,12.321,12.321,0,0,0,3.616,9.088,12.091,12.091,0,0,0,8.966,3.665,12.609,12.609,0,0,0,9.113-3.591,12.741,12.741,0,0,0,.024-17.908A12.432,12.432,0,0,0,1454.319,82.466Zm5.155,18.152a7.406,7.406,0,0,1-10.31-.025,8.023,8.023,0,0,1-1.906-5.643,7.646,7.646,0,0,1,1.955-5.424,7.315,7.315,0,0,1,10.261,0,8.933,8.933,0,0,1,0,11.092Z" transform="translate(-1413.767 -82.466)" fill="#fff"/>
      <path id="Path_1154" data-name="Path 1154" d="M1515.75,82.466a12.361,12.361,0,0,0-8.99,3.616,11.824,11.824,0,0,0-3.689,8.771,12.321,12.321,0,0,0,3.616,9.088,12.09,12.09,0,0,0,8.966,3.665,12.608,12.608,0,0,0,9.113-3.591,12.74,12.74,0,0,0,.025-17.908A12.432,12.432,0,0,0,1515.75,82.466Zm5.155,18.152a7.406,7.406,0,0,1-10.31-.025,8.025,8.025,0,0,1-1.906-5.643,7.647,7.647,0,0,1,1.955-5.424,7.315,7.315,0,0,1,10.261,0,8.932,8.932,0,0,1,0,11.092Z" transform="translate(-1447.325 -82.466)" fill="#fff"/>
      <path id="Path_1155" data-name="Path 1155" d="M1591.58,82.466a8.252,8.252,0,0,0-7.011,3.518,7.294,7.294,0,0,0-6.377-3.518,6.582,6.582,0,0,0-3.005.611,11.485,11.485,0,0,0-2.711,2.248v-2.2h-5.5v23.8h5.5V94.633a10.822,10.822,0,0,1,1.063-5.473,3.672,3.672,0,0,1,3.383-1.734q3.665,0,3.665,6.352v13.144h5.521V94.633a11.015,11.015,0,0,1,1.038-5.5,3.586,3.586,0,0,1,3.31-1.71,3.012,3.012,0,0,1,2.81,1.441,10.206,10.206,0,0,1,.83,4.837v13.217h5.521V92.214Q1599.618,82.466,1591.58,82.466Z" transform="translate(-1482.237 -82.466)" fill="#fff"/>
    </g>
    <g id="Group_318" data-name="Group 318" transform="translate(1365.486 121.533)">
      <rect id="Rectangle_786" data-name="Rectangle 786" width="5.318" height="5.318" transform="translate(0 0)" fill="#005cff"/>
    </g>
    <path id="Path_1156" data-name="Path 1156" d="M1341.914,94.819V82.568H1336.6v2.155a13.077,13.077,0,0,0-16.371,1.359,11.824,11.824,0,0,0-3.689,8.771,12.321,12.321,0,0,0,3.616,9.088,12.09,12.09,0,0,0,8.966,3.665,12.743,12.743,0,0,0,7.479-2.245v2.245h5.318V95.277c0-.077.005-.152.005-.229S1341.915,94.9,1341.914,94.819Zm-7.545,5.8a7.406,7.406,0,0,1-10.31-.025,8.025,8.025,0,0,1-1.906-5.643,7.646,7.646,0,0,1,1.955-5.424,7.315,7.315,0,0,1,10.26,0,8.932,8.932,0,0,1,0,11.092Z" fill="#fff"/>
  </g>
</svg>
