<svg xmlns="http://www.w3.org/2000/svg" xmlns:xlink="http://www.w3.org/1999/xlink" viewBox="0 0 531.32 125.27"><defs><style>.cls-1{fill:url(#radial-gradient);}.cls-2{font-size:50px;fill:#1b4fdd;font-family:Muli-LightItalic, Muli;font-weight:300;font-style:italic;}.cls-3{letter-spacing:0em;}</style><radialGradient id="radial-gradient" cx="159.31" cy="127.61" r="30.73" gradientUnits="userSpaceOnUse"><stop offset="0" stop-color="#0a9ef3"/><stop offset="0.74" stop-color="#1b4fdd"/></radialGradient></defs><g id="Layer_2" data-name="Layer 2"><g id="Layer_1-2" data-name="Layer 1"><path d="M153.17,34.87V.29h-15V6.37A35.2,35.2,0,0,0,117.33,0,34.92,34.92,0,0,0,92,10.2,33.4,33.4,0,0,0,81.54,35q0,15.45,10.21,25.65Q101.95,71,117.05,71a36,36,0,0,0,21.11-6.33V102.8h15V36.16c0-.22,0-.43,0-.65S153.18,35.08,153.17,34.87ZM131.88,51.23q-5.44,5.87-14.55,5.86t-14.55-5.93Q97.4,45.31,97.4,35.24q0-9.39,5.52-15.31T117.33,14q9,0,14.55,5.93t5.45,15.65Q137.33,45.38,131.88,51.23Z"/><path d="M196,0a34.92,34.92,0,0,0-25.38,10.2A33.4,33.4,0,0,0,160.21,35q0,15.45,10.21,25.65Q180.62,71,195.72,71t25.72-10.13a34,34,0,0,0,10.42-25.31,34.2,34.2,0,0,0-10.35-25.24A35.12,35.12,0,0,0,196,0Zm14.55,51.23Q205.1,57.1,196,57.09t-14.55-5.93q-5.38-5.85-5.38-15.92,0-9.39,5.52-15.31T196,14q9,0,14.55,5.93T216,35.58Q216,45.38,210.55,51.23Z"/><path d="M274.67,0a34.9,34.9,0,0,0-25.38,10.2A33.4,33.4,0,0,0,238.88,35q0,15.45,10.21,25.65Q259.29,71,274.39,71t25.72-10.13a34,34,0,0,0,10.42-25.31,34.2,34.2,0,0,0-10.35-25.24A35.12,35.12,0,0,0,274.67,0Zm14.55,51.23q-5.45,5.87-14.55,5.86t-14.55-5.93q-5.39-5.85-5.38-15.92,0-9.39,5.52-15.31T274.67,14q9,0,14.55,5.93t5.45,15.65Q294.67,45.38,289.22,51.23Z"/><path d="M390.16,0a23.29,23.29,0,0,0-19.79,9.93Q363.76,0,352.37,0a18.69,18.69,0,0,0-8.48,1.72,32.67,32.67,0,0,0-7.65,6.35V1.86H320.72V69h15.52V34.34q0-10.55,3-15.45T348.79,14q10.33,0,10.34,17.93V69h15.58V34.34q0-10.7,2.93-15.52T387,14q5.52,0,7.93,4.07t2.34,13.65V69h15.59V27.51Q412.85,0,390.16,0Z"/><rect class="cls-1" x="138.16" y="110.26" width="15.01" height="15.01"/><path d="M71.63,34.87V.29h-15V6.37A35.22,35.22,0,0,0,35.79,0,34.9,34.9,0,0,0,10.41,10.2,33.4,33.4,0,0,0,0,35Q0,50.41,10.21,60.61,20.41,71,35.51,71a36,36,0,0,0,21.11-6.33V71h15V36.16c0-.22,0-.43,0-.65S71.63,35.08,71.63,34.87ZM50.34,51.23Q44.9,57.1,35.79,57.09T21.24,51.16q-5.38-5.85-5.38-15.92,0-9.39,5.52-15.31T35.79,14q9,0,14.55,5.93t5.44,15.65Q55.78,45.38,50.34,51.23Z"/><text class="cls-2" transform="translate(428.27 67.07)">b<tspan class="cls-3" x="29.55" y="0">e</tspan><tspan x="56.65" y="0">ta</tspan></text></g></g></svg>