<svg xmlns="http://www.w3.org/2000/svg" xmlns:xlink="http://www.w3.org/1999/xlink" width="352.07" height="593.146" viewBox="0 0 352.07 593.146">
  <defs>
    <clipPath id="clip-path">
      <path id="Path_1171" data-name="Path 1171" d="M19.4-571.584H77.613V-629.8H19.4Z" transform="translate(-19.4 629.798)" fill="none"/>
    </clipPath>
    <linearGradient id="linear-gradient" x1="0.052" y1="0.122" x2="0.257" y2="0.122" gradientUnits="objectBoundingBox">
      <stop offset="0" stop-color="#1c62f9"/>
      <stop offset="0.1" stop-color="#1c62f9"/>
      <stop offset="0.2" stop-color="#1b65f8"/>
      <stop offset="0.3" stop-color="#1b6cf6"/>
      <stop offset="0.4" stop-color="#1a73f5"/>
      <stop offset="0.5" stop-color="#1a7af4"/>
      <stop offset="0.6" stop-color="#1981f2"/>
      <stop offset="0.7" stop-color="#1988f1"/>
      <stop offset="0.8" stop-color="#188ff0"/>
      <stop offset="0.9" stop-color="#1896ee"/>
      <stop offset="1" stop-color="#179aed"/>
    </linearGradient>
    <clipPath id="clip-path-2">
      <path id="Path_1173" data-name="Path 1173" d="M0-36.652H352.07V-629.8H0Z" transform="translate(0 629.798)" fill="none"/>
    </clipPath>
  </defs>
  <g id="Group_593" data-name="Group 593" transform="translate(0 629.798)">
    <g id="Group_590" data-name="Group 590" transform="translate(14.73 -629.798)" clip-path="url(#clip-path)">
      <g id="Group_589" data-name="Group 589" transform="translate(-14.73 0)">
        <path id="Path_1170" data-name="Path 1170" d="M-19.4-76.668H263.919v478.2H-19.4Z" transform="translate(19.4 76.668)" fill="url(#linear-gradient)"/>
      </g>
    </g>
    <g id="Group_592" data-name="Group 592" transform="translate(0 -629.798)" clip-path="url(#clip-path-2)">
      <g id="Group_591" data-name="Group 591" transform="translate(0 24.908)">
        <path id="Path_1172" data-name="Path 1172" d="M-32.549-75.1c-1.358-15.407-25.37-98.631-31.431-111.1-4.413-9.078-8.281-17.033-9.071-23.49-.418-3.41-.017-6.386,1.539-8.86-9.291-.788-18.644-4.817-27.712-11.866a91.143,91.143,0,0,1-10.456-9.613,188.42,188.42,0,0,1-14.569-18.194c-6.553-8.938-12.79-17.446-21.783-24.1-12.777-9.452-19.084-18.365-24.644-26.221-4.161-5.88-7.9-11.158-13.645-15.568-5.582-4.281-10.767-9.012-14.6-14.543a34.439,34.439,0,0,1-6.47-19.478c-.2-12.441-.241-19.207,3.478-23.488a13.875,13.875,0,0,1,5.757-3.743c.027-.159.052-.323.073-.488.418-3.148.008-7.345-2.2-13.073a45.594,45.594,0,0,1-3.415-13.644,26.178,26.178,0,0,1,3.329-14.413,50.426,50.426,0,0,1,7.9-10.411A73.3,73.3,0,0,1-179.195-447q.924-.628,1.794-1.144c-3.116-1.743-6.159-4.207-8.26-10.4a58.984,58.984,0,0,1-2.544-10.969,34.972,34.972,0,0,1-.089-9.465,12.373,12.373,0,0,1,5.077-8.546,10.562,10.562,0,0,1,5.119-1.856,9.635,9.635,0,0,1,5.273,1.052,11.256,11.256,0,0,1,5.471,7.233,68.014,68.014,0,0,1,1.807,10.684,78.321,78.321,0,0,1,.423,11.311,25.162,25.162,0,0,1-1.81,8.686,6.976,6.976,0,0,1,2.737,1.752,11.727,11.727,0,0,1,2.819,5.854c.944,4.464.449,10.234-1.036,15.386v0a26.492,26.492,0,0,1-1.475,3.942c-.014.843-.038,1.715-.073,2.621-.215,5.574-.673,19.566-.954,35.96a11.964,11.964,0,0,1,2.3,4.973,15.133,15.133,0,0,1-.173,6.791,17.04,17.04,0,0,1-2.329,5.267c-.08,12.209,0,24.625.383,35.151.322,8.8,2.586,15.547,6.978,19.991,4.236,4.287,10.512,6.476,19,6.354,18.889-.273,34.6-.2,49.408-.131,6.315.03,12.466.058,18.632.059-13.37-5.441-33.478-5.707-50.739-5.934-6.518-.085-12.635-.166-17.814-.513-5.722-.383-10.677-1.907-14.252-5.664-3.544-3.725-5.662-9.6-5.714-18.665-.069-12.016.023-27.759.179-43.727s.376-32.17.563-45.087c.069-4.8.049-9.489-.263-14.46a129.191,129.191,0,0,0-2.009-15.987c-.379-2.017-.8-4.169-1.21-6.238-2-10.173-3.621-18.391-3.7-32.1-.034-6.115-.027-12.427-.019-19.093.02-16.826.043-35.915-.6-59.851-.27-10.023,2.661-15.862,7.134-19.2,4.442-3.316,10.339-4.09,16.108-4.044,3.656.029,7.867.068,12.474.109,24.643.223,60.615.55,83.523.12,7.033-.131,12.326,1.167,16,4.372s5.658,8.273,6.035,15.645c1.088,21.289.671,67.635.121,106.566a14.672,14.672,0,0,1,2.044-2.236,8.37,8.37,0,0,1,4.6-2.19,6.481,6.481,0,0,1,4.74,1.445c2.008,1.555,3.8,4.414,5.1,8.8.393,1.322.762,2.631,1.143,3.978,2.951,10.457,6.553,23.214,17.6,32.351,6.234,5.158,7.171,13.829,8.136,22.77.929,8.6,1.888,17.47,7.746,23.18,6.419,6.259,9.034,19.15,9.7,33.471.656,14.167-.579,29.76-1.909,41.619a73.967,73.967,0,0,1-3.307,15.2c1.326,2.068,1.939,6.364,1.632,13.493a124.274,124.274,0,0,0,3.3,34.155,115.016,115.016,0,0,0,12.324,31.05c8.043,13.807,12.562,26.985,16.682,39C68.515-162.733,120.695-43.5,126.5-34.776h-2.345c-5.528-8.685-57.617-127.656-61.4-138.676-4.093-11.938-8.582-25.028-16.521-38.656a116.967,116.967,0,0,1-12.532-31.581,126.179,126.179,0,0,1-3.354-34.693c.229-5.333.009-8.847-.578-10.867a56.681,56.681,0,0,1-7.938,14.441A40.272,40.272,0,0,1,7.359-262.786a33.364,33.364,0,0,1-18.275,3.023c-7.658-.859-15.865-4.247-24.278-10.724-6.467-4.979-11.2-11.294-15.963-17.654a133.808,133.808,0,0,0-9.644-11.9,24.286,24.286,0,0,0-5.821-4.433c-7.551.015-15.023-.02-22.738-.055-14.8-.069-30.5-.142-49.378.131-9.052.13-15.8-2.26-20.424-6.939-4.752-4.809-7.2-11.992-7.538-21.3-.36-9.828-.453-21.316-.4-32.754a18.452,18.452,0,0,1-6.119,4.182,43.807,43.807,0,0,1-8.686,2.632,33.072,33.072,0,0,1-8.259.614,14.057,14.057,0,0,1-7.292-2.383,10.652,10.652,0,0,1-3.642-4.435,12.116,12.116,0,0,1-.951-5.7,17.107,17.107,0,0,1,3.247-8.663,15.379,15.379,0,0,0,2.033-3.834,10.849,10.849,0,0,0-3.664,2.648c-3.239,3.727-3.194,10.22-3,22.171a32.534,32.534,0,0,0,6.124,18.393c3.694,5.329,8.736,9.922,14.177,14.1,5.974,4.583,9.8,9.982,14.053,16,5.471,7.731,11.678,16.5,24.212,25.775,9.237,6.834,15.558,15.456,22.2,24.516a187.067,187.067,0,0,0,14.415,18.009,89.156,89.156,0,0,0,10.233,9.4c9.2,7.153,18.665,11.087,28,11.554,2.865-2.876,7.853-4.869,15.717-5.832l1.619-.2c2.131-.256,4.386-.527,6.673-.872a57.842,57.842,0,0,0,7.94-6.288,78.388,78.388,0,0,0,8.193-9.071c3.672-4.723,6.434-6.854,8.3-7.288a2.647,2.647,0,0,1,2.669.676,3.974,3.974,0,0,1,.953,2.549c.172,2.648-1.169,6.834-3.849,10.394-5.3,7.035-14.649,9.548-23.5,10.914a42,42,0,0,1-22.176,7.02q-.772.014-1.544,0c-1.939,2.3-2.481,5.154-2.074,8.488.752,6.141,4.551,13.956,8.886,22.874C-56.054-174.386-31.927-90.926-30.577-75.1ZM-54.062-224.289c-5.9.723-10.02,2.046-12.738,3.9a38.9,38.9,0,0,0,16.322-4.335c-.667.082-1.326.161-1.973.238-.437.053-.858.1-1.611.2M-41.5-228.1c7.134-1.453,14.051-4,18.131-9.418,2.4-3.185,3.6-6.836,3.457-9.093a2.134,2.134,0,0,0-.407-1.31.819.819,0,0,0-.806-.121c-1.475.343-3.833,2.254-7.2,6.581a80.255,80.255,0,0,1-8.4,9.293q-2.362,2.216-4.779,4.068M-194.082-386.059c4.1-1.22,9.642-2.055,17.162-2.973,4.292-.525,7.656.421,10.075,2.258.266-14.728.665-27.268.884-33.146a20.884,20.884,0,0,1-3.36,3.68,25.136,25.136,0,0,1-12.419,5.5,13.012,13.012,0,0,1-8.014-.815,8.2,8.2,0,0,1-4-4.2,11,11,0,0,1-.566-6.226c.636-3.666,2.812-7.837,6.741-11.853a66.083,66.083,0,0,1,9.676-7.946,51.946,51.946,0,0,0,5.082-3.916c-.812-.5-1.658-.929-2.512-1.361a30.087,30.087,0,0,0-2.764,1.684,71.265,71.265,0,0,0-10.955,9.345,48.426,48.426,0,0,0-7.586,9.98,24.3,24.3,0,0,0-3.1,13.373,43.827,43.827,0,0,0,3.285,13.051c2.235,5.809,2.724,10.192,2.367,13.562m17.4-1.018c-8.088.988-13.789,1.857-17.768,3.184a16.562,16.562,0,0,1-2.739,5.881,15.153,15.153,0,0,0-2.894,7.654,10.17,10.17,0,0,0,.789,4.789,8.693,8.693,0,0,0,2.972,3.62,12.13,12.13,0,0,0,6.283,2.028,31.161,31.161,0,0,0,7.766-.584,41.7,41.7,0,0,0,8.286-2.509,16.2,16.2,0,0,0,6.907-5.465q.009-1.317.021-2.629c.039-4.44.1-8.828.168-13.062-.042-.045-.084-.09-.126-.134-2.041-2.118-5.262-3.311-9.665-2.772m12.138,7.572a10.957,10.957,0,0,0-.434-1.506c-.043,2.852-.079,5.76-.107,8.695q.222-.638.383-1.282a13.169,13.169,0,0,0,.157-5.907m-10.777-69.752a14.554,14.554,0,0,1,5.262-1.53,9.106,9.106,0,0,1,1.093-.007,22.16,22.16,0,0,0,1.881-8.405,76.4,76.4,0,0,0-.415-11.011,66.1,66.1,0,0,0-1.746-10.346,9.347,9.347,0,0,0-4.485-6.025,7.691,7.691,0,0,0-4.2-.829,8.608,8.608,0,0,0-4.165,1.51,10.438,10.438,0,0,0-4.246,7.223,32.978,32.978,0,0,0,.089,8.926,56.943,56.943,0,0,0,2.459,10.584c2.112,6.224,5.311,8.274,8.477,9.911m5.229.444a11.158,11.158,0,0,0-2.964.716c.566.3,1.122.613,1.665.957a15.849,15.849,0,0,0,1.3-1.673m4.5,1.537a5.039,5.039,0,0,0-2.236-1.344,16.784,16.784,0,0,1-1.931,2.665c3.01,2.54,5.326,6.847,5.8,16.753a30.874,30.874,0,0,0,.661-13.2,9.817,9.817,0,0,0-2.3-4.878m-5.011,29.549a19.5,19.5,0,0,0,4.762-6.206c.168-12.95-2.157-17.889-5.326-20.579a53.457,53.457,0,0,1-5.589,4.334,64.383,64.383,0,0,0-9.415,7.723c-3.629,3.709-5.629,7.506-6.2,10.805a9.077,9.077,0,0,0,.435,5.125,6.268,6.268,0,0,0,3.058,3.21,11.1,11.1,0,0,0,6.813.639,23.2,23.2,0,0,0,11.465-5.051M-66.133-306.435c4.336-.011,8.7-.038,13.153-.092,9.95-.119,16.292-1.481,20.227-4.4,1.969-12.509,4.538-29.96,5.168-42.7-.418-16.078-.3-32.833-.219-45.05.026-3.769.049-7.07.049-10.509h0c0-2.876.068-8.18.175-15.213a59.239,59.239,0,0,1-1.535-6.269,86.332,86.332,0,0,1-1.451-15.877,61.51,61.51,0,0,1,1.466-14.3,30.191,30.191,0,0,1,2.181-6.03c.573-39.542,1.046-87.9-.073-109.77-.348-6.809-2.1-11.421-5.365-14.268s-8.134-4.009-14.674-3.887c-22.923.43-58.914.1-83.569-.121-4.607-.042-8.818-.08-12.474-.109-5.4-.043-10.893.657-14.914,3.66-3.989,2.978-6.6,8.305-6.351,17.578.644,23.937.621,43.05.6,59.9-.008,6.662-.015,12.971.019,19.086.075,13.484,1.68,21.635,3.667,31.726.375,1.907.765,3.884,1.21,6.254A131.185,131.185,0,0,1-156.8-440.6c.314,4.994.333,9.742.263,14.606-.187,12.925-.407,29.124-.563,45.079s-.248,31.7-.179,43.7c.049,8.509,1.967,13.946,5.175,17.319,3.179,3.341,7.7,4.7,12.96,5.057,5.2.348,11.257.427,17.705.513,19.124.251,41.685.549,55.3,7.891m13.176,1.871c-3.38.041-6.708.067-10.011.081a23.994,23.994,0,0,1,3.6,3.1,135.673,135.673,0,0,1,9.783,12.065c4.682,6.251,9.331,12.457,15.593,17.277,8.109,6.241,15.979,9.5,23.293,10.323a31.435,31.435,0,0,0,17.221-2.845A38.322,38.322,0,0,0,20.28-276.01,55.368,55.368,0,0,0,28.435-291.3c-1.306-.544-3.6,1.582-6.5,5.391-7.369,9.682-16.349,14.881-24.955,16.378a28.693,28.693,0,0,1-15.349-1.393,24.855,24.855,0,0,1-11.556-9.1c-3.855-5.61-5.66-13.159-4.221-22.165l.334-2.088c.2-1.246.417-2.6.644-4.027-4.3,2.467-10.614,3.638-19.789,3.748m22.546-8.626q.235-.3.452-.608c3.446-4.955,3.613-12.846,2.986-24.266-.975,8.509-2.276,17.391-3.438,24.874m2.068.516a14.154,14.154,0,0,1-2.591,2.822c-.336,2.129-.654,4.1-.938,5.876l-.334,2.088c-1.354,8.473.316,15.535,3.9,20.748a22.888,22.888,0,0,0,10.648,8.38,26.746,26.746,0,0,0,14.31,1.286c8.15-1.417,16.68-6.378,23.723-15.632,3.4-4.465,6.388-6.874,8.691-6.059a72.424,72.424,0,0,0,2.97-14.042c1.323-11.794,2.551-27.288,1.9-41.319-.642-13.876-3.1-26.3-9.1-32.148-6.367-6.207-7.364-15.43-8.331-24.381-.921-8.534-1.815-16.812-7.435-21.461-11.515-9.527-15.209-22.612-18.236-33.337-.39-1.383-.771-2.727-1.134-3.954-1.175-3.959-2.724-6.484-4.42-7.8a4.585,4.585,0,0,0-3.339-1.044,6.449,6.449,0,0,0-3.5,1.713,15.508,15.508,0,0,0-3.392,4.542c-.147,10.162-.3,19.731-.435,28.105-.08,5-.154,9.575-.216,13.594a35.583,35.583,0,0,0,5.863,11.537,28.164,28.164,0,0,0,4.273,4.358,8.707,8.707,0,0,1,1.67-.425c3.531-.547,7.825.856,11.642,2.386A5.521,5.521,0,0,1,1.2-403.87a2.392,2.392,0,0,1,.011,1.6,2.33,2.33,0,0,1-1.07,1.238c-1,.575-2.716.7-5.105-.057A35.751,35.751,0,0,1-15.7-406.482c-1.7,1.09-2.873,3.29-3.113,7.192a69.772,69.772,0,0,0,2.256,21.032,66.661,66.661,0,0,0,3.742,10.766,17.048,17.048,0,0,1,7.076,4.244C.952-356.873,4.172-352.656,5.1-350.373c.627,1.544.378,2.553-.526,3.04-.7.378-1.786.241-3.094-.388-2.874-1.38-7.591-5.358-11.842-11.4A45.288,45.288,0,0,1-14.2-365.8a9.966,9.966,0,0,0-1.544-.179,8.83,8.83,0,0,0-3.712.66,8.926,8.926,0,0,0-3.047,2.106,11.845,11.845,0,0,0-3.041,7.846c-.02.573-.046,1.157-.074,1.751.137,5.251.333,10.43.6,15.356.656,11.888.459,20.144-3.327,25.589m2.5-86c-.07,10.1-.161,23.31.048,36.677a12.131,12.131,0,0,1,1.866-2.574,10.883,10.883,0,0,1,3.717-2.569,10.782,10.782,0,0,1,4.535-.806q.263.009.528.032a70.085,70.085,0,0,1-3.314-9.859A71.742,71.742,0,0,1-20.778-399.4c.264-4.3,1.549-6.921,3.453-8.383a30.082,30.082,0,0,1-3.967-4.154,34.325,34.325,0,0,1-4.394-7.373c-.064,4.53-.1,8-.1,10.125h0c0,2.3-.027,6.138-.056,10.516m-1.607-33.865.093-5.781c.11-6.888.235-14.589.357-22.76-.065.235-.128.472-.188.713A59.486,59.486,0,0,0-28.6-446.549a85.3,85.3,0,0,0,1.15,14.01m13.991,25.247a34.521,34.521,0,0,0,9.082,4.329c1.8.574,2.964.557,3.535.227a.422.422,0,0,0,.2-.2.482.482,0,0,0-.026-.3,3.665,3.665,0,0,0-2.227-1.778c-3.548-1.421-7.5-2.733-10.564-2.276m1.872,42.342a41.256,41.256,0,0,0,2.831,4.7c4.049,5.755,8.441,9.5,11.08,10.764.722.347,1.184.5,1.315.426.069-.037-.192-.14-.366-.569C2.434-351.7-.631-355.666-7.1-361.823a16.587,16.587,0,0,0-4.488-3.128" transform="translate(205.465 596.993)"/>
      </g>
    </g>
  </g>
</svg>
