<svg xmlns="http://www.w3.org/2000/svg" width="262.341" height="263.194" viewBox="0 0 262.341 263.194">
  <g id="Group_661" data-name="Group 661" transform="translate(-285.892 -131.685)">
    <path id="Path_1203" data-name="Path 1203" d="M463.088,394.879a26.807,26.807,0,0,1-13.644-3.564c-3.981-2.2-5.745-4.306-5.241-6.248.735-2.834,6.022-3.836,10.733-3.824h.169c5.73,0,11.923-.633,13.548-7.606.544-2.333-.255-5.018-1.027-7.614a32.494,32.494,0,0,1-1.015-4.032,7.38,7.38,0,0,1-5-.209c-2.7-1.288-4.144-4.865-5.2-7.477l-.173-.426c-1-2.454-1.886-4.951-2.745-7.366a100.1,100.1,0,0,0-5.039-12.384c-4.094-7.962-7.208-14.562-9.8-20.769a35.969,35.969,0,0,0-3.629-5.855c-3.047-4.345-6.465-9.219-5.427-13.412h-34.96a31.841,31.841,0,0,0-5.492,4.053c1.882,10.96-1.506,22.239-4.8,33.222-1,3.33-2.034,6.772-2.871,10.079a78.024,78.024,0,0,0-1.909,11.719,22.2,22.2,0,0,0,.07,2.828c.192,3.122.431,7.007-1.778,8.511-.828.564-2.656.422-6.286-.043a36.168,36.168,0,0,0,1.812,4.5c2.973,6.159,6.951,5.39,12.455,4.325,1.534-.3,3.12-.6,4.79-.772,2.878-.289,8.865-.893,10.089,2.87,1.024,3.146-3.487,7.661-5.06,8.665-6.173,3.941-14.417,4.4-20.1,4.4h-.063c-4.185,0-6.1.676-9.761,2.331l-.529.24c-3.468,1.577-5.973,2.715-9.828.463a.854.854,0,0,1-.281-.267c-3.987-6.118-2.019-14.629,6.024-25.963a9.8,9.8,0,0,0-2,1.292.829.829,0,0,1-1.151-.089q-.185-.21-.374-.417c-.073-.048-.144-.1-.212-.155-1.517,7.483-4.317,15.115-6.238,17.139-2.161,2.277-12.007,6.667-17.446,6a4.341,4.341,0,0,1-3.5-2.006c-1.47-2.6,1.836-5.48,4.024-7.388.454-.4.845-.737,1.087-.986,2.438-2.511,3.668-4.168,4.511-7.351,2.115-7.987.6-13.844-4.93-18.992-.269-.251-.541-.5-.81-.742a15.811,15.811,0,0,1-2.991-3.233l-.679-.2c-2.986,1.395-6.074,2.837-9.407.217a17.974,17.974,0,0,1-3.695-5.023A24.881,24.881,0,0,0,315,339.8c-2.512-2.933-5.239-5.8-8.582-9.037-1.541-1.489-3.2-2.973-4.961-4.544-9.837-8.787-20.946-18.708-12.679-32.13h.53a.872.872,0,0,1-.883-.708.828.828,0,0,1,.819-.949h1.069a.828.828,0,0,1,.679,1.3c-9,12.881,1.458,22.218,11.568,31.248,1.771,1.582,3.445,3.077,5.009,4.589,3.381,3.269,6.142,6.176,8.689,9.15a26.343,26.343,0,0,1,2.468,3.762,17.024,17.024,0,0,0,3.287,4.553c2.532,1.99,4.692.981,7.682-.416.237-.111.477-.223.72-.335v0a4.933,4.933,0,0,1,1.549-3.561c1.553-1.7,5.383-3.321,8.442-3.311h0c-1.924-1.936-3.863-3.795-5.866-5.713-.845-.81-1.7-1.627-2.564-2.463a96.545,96.545,0,0,1-12.064-14.04c-.571-.818-1.22-1.881-1.97-3.112-1.693-2.776-3.956-6.487-6.392-8.873a15.131,15.131,0,0,1-1.778.37c-2.872.409-4.952-.624-5.669-1.756a1.607,1.607,0,0,1-.053-1.781c.389-.589,1.379-1.206,3.894-.8a8.423,8.423,0,0,1,4.037,2.108,33.16,33.16,0,0,0,7.805-4.017,49.976,49.976,0,0,0,6.593-5.642c3.172-3.044,6.452-6.191,10.494-7.814,3.9-1.566,9.183-.14,14.875,4.014,5.2,3.8,10.375,9.831,12.521,15.366a14.706,14.706,0,0,1,1.2-1.652c1.608-1.9,3.294-2.76,4.752-2.418,1.364.32,2.33,1.6,2.871,3.794,1.2,4.872-2.369,10.224-5.517,14.947a44.883,44.883,0,0,0-3.294,5.436c-2.86,6.188-3.91,12.351-4.9,19.188-.092.638-.263,1.552-.48,2.708-.241,1.286-.6,3.2-.919,5.308.735,2.686.521,6.775-.207,11.11a1.983,1.983,0,0,0,.763,1.006.8.8,0,0,1,.133.1,10.9,10.9,0,0,1,4.141-1.862l.167-.221c1.669-2.195,3.5-4.12,5.238-6h0c-1.105-10.078,1.2-20.458,3.817-30.441a72.478,72.478,0,0,1,9.35-21.555,38.787,38.787,0,0,0-11.185-20.454c-1.367-1.336-2.877-2.64-4.337-3.9-3.609-3.116-7.342-6.339-9.616-10.578a23.664,23.664,0,0,1-2.305-6.37,12.017,12.017,0,0,1-2.629-.13c-1.64-.279-2.748-.918-3.205-1.847a.828.828,0,0,1,.685-1.192,19.17,19.17,0,0,1,4.684.2,69.963,69.963,0,0,1-.019-10.8l.033-.673c.131-2.72.479-5.594.848-8.636,1.293-10.678,2.758-22.781-5.736-30.189q-1.019-.888-2.035-1.753c-5.423-4.644-10.546-9.031-12.732-16.244a26.378,26.378,0,0,1-.818-3.6q-.368.354-.769.68a60.57,60.57,0,0,1-6.131,4.212c-4.219,2.646-8.2,5.145-10.8,9.918-2.918,5.361-3.62,16.129,1.39,20.018,2.424,1.882,3.036,1.506,3.042,1.5,1.079-.735-.84-7.3-1.562-9.773a17.3,17.3,0,0,1-1-4.337.826.826,0,0,1,.313-.583.837.837,0,0,1,.641-.167c6.216.985,5.353,11.831,4.89,17.658-.048.6-.091,1.141-.118,1.584-.165,2.725-.07,5.341.022,7.87a48.172,48.172,0,0,1-.51,11.571c-.834,4.145-.527,7.131.937,9.126a7.652,7.652,0,0,0,4.214,2.708c-.325-1.089-.745-2.212-1.158-3.32-1.332-3.57-2.71-7.262-1.192-10.178.937-1.8,2.832-3.052,5.794-3.821a.827.827,0,0,1,1.017.626c.558,2.571-.3,4.545-1.132,6.455-.189.435-.383.882-.559,1.333,1.548,1.8,3.684,1.22,6.7.143.745-.266,1.515-.542,2.241-.73a.821.821,0,0,1,.8.224q.233.241.474.474a.842.842,0,0,1,.163.953,12.948,12.948,0,0,0-.608,1.935c-.1.383-.2.774-.319,1.154,1.73.537,3.48,1.012,5.317,1.512.812.22,1.627.442,2.443.67a.828.828,0,0,1,.575.571,2.79,2.79,0,0,1-.524,2.665c-1.8,2.12-7.241,2.613-17.118,1.55l-.2-.022q-.274-.029-.54-.064a8.353,8.353,0,0,1-.018,2.527.844.844,0,0,1-.3.5,8.281,8.281,0,0,1-7.252,1.65c-6.631-1.394-13.9-9.46-16.6-14.746-6.45-12.634-6.019-32.1-2.258-44.807,2.411-8.145,6.77-13.732,13.325-17.08.782-.4,1.884-1.02,3.16-1.739,4.841-2.727,9.464-5.226,12.882-6.219a56.214,56.214,0,0,1,1.828-11.738,9.179,9.179,0,0,0-1.861-2.064,9.037,9.037,0,0,1-2.494-3.072c-1.125-2.793-.588-6.158-.155-8.862l.037-.235c1-6.251,3.742-10.708,8.643-14.025,4.928-3.336,10.054-4.3,17.141-3.242,1.9.285,9.759,2.23,10.548,5.886.314,1.455-.471,2.863-2.335,4.189a7.352,7.352,0,0,0,2.123,3.59,12.317,12.317,0,0,1,2.161,3.02,15.662,15.662,0,0,1,1.227,4.072,10.413,10.413,0,0,0,1.486,4.149,5.882,5.882,0,0,0,.909,1,3.684,3.684,0,0,1,1.533,2.674,3.375,3.375,0,0,1-2,2.867,2.761,2.761,0,0,0-1.2,1.1,7.5,7.5,0,0,0-.15,3.76c.237,1.975.505,4.213-1.24,6.175-1.475,1.659-3.516,1.97-5.491,2.27a9.839,9.839,0,0,0-3.574.988,7.068,7.068,0,0,0-2.4,2.713c6.21.509,14.865,5.95,17.892,11.37,5.26,9.416,1.7,21.1-1.448,31.4-1.056,3.463-2.055,6.735-2.629,9.657-.72,3.661-.185,6.643,1.545,8.625a7.026,7.026,0,0,0,1.1,1.011c-.121-.6-.215-1.192-.281-1.757-.187-1.6-.325-4.495.841-5.849a.827.827,0,0,1,.6-.287.805.805,0,0,1,.619.251,6.868,6.868,0,0,1,1.136,2.744c.285,1,.817,2.86,1.315,3.08a.092.092,0,0,0,.055,0,12.918,12.918,0,0,0,0-2.841c-.119-1.9-.242-3.857.386-4.969a.837.837,0,0,1,.977-.393c1.219.386,1.322.111,1.705-.918.337-.9.846-2.271,2.645-2.33,2.344-.073,2.623,1.793,2.742,3.188.647-2.034,1.426-4.13,2.914-4.458a2.4,2.4,0,0,1,2.3.985.838.838,0,0,1,.164.85,4.7,4.7,0,0,0-.348,2.032,4.717,4.717,0,0,1,3.745-.77.84.84,0,0,1,.685.788c.187,5.738-8.686,13.833-14.064,14.15a17.387,17.387,0,0,1-5.5-.469,4.625,4.625,0,0,0,1.219,1.837,3.241,3.241,0,0,0,2.246.412,2.328,2.328,0,0,1,2.1.551c.471.57.507,1.416.123,2.92-.663,2.6-4.694,4.113-5.5,4.39-3.715,1.282-6.759,1.152-9.048-.387-4.711-3.167-5.157-11.316-5.516-17.864-.035-.635-.069-1.253-.105-1.842-.348,2.554-.625,5.159-.895,7.855-.071.711-.083,1.59-.1,2.519-.042,3-.09,6.408-1.966,8.247a3.931,3.931,0,0,1-.679.525,33.276,33.276,0,0,1,6.554,5.467c1.195,1.178,2.43,2.4,3.824,3.6,1.434,1.239,2.937,2.436,4.391,3.593,5.061,4.029,10.294,8.2,13.342,14.76a33.329,33.329,0,0,1,2.262,6.61,32.949,32.949,0,0,1,5.239-3.722.826.826,0,0,1,.409-.108h36.353a.829.829,0,0,1,.747,1.185c-1.7,3.566,1.785,8.542,4.863,12.932a36.871,36.871,0,0,1,3.8,6.167c2.576,6.166,5.672,12.728,9.744,20.651a101.29,101.29,0,0,1,5.128,12.586c.852,2.4,1.733,4.876,2.718,7.3l.174.431c.954,2.36,2.261,5.592,4.379,6.6a6.137,6.137,0,0,0,4.131.032c-.041-2.546.959-4.89,4.5-6.486a22.117,22.117,0,0,1,5.935-1.354c-.19-1.7-.338-3.325-.482-4.9-.522-5.741-.974-10.7-3.136-16.292-.7-1.8-1.362-3.629-2.006-5.4a102.217,102.217,0,0,0-5.642-13.494,47.208,47.208,0,0,0-3.238-5.214c-2.077.262-4,.1-5.29-.853-1.435-1.064-1.865-2.88-1.276-5.4a.832.832,0,0,1,.927-.636c2.184.323,4.473,2.6,6.372,5.086a33.912,33.912,0,0,0,9.118-3.315c2.818-1.63,5.527-3.464,8.147-5.238,2.672-1.81,5.436-3.681,8.34-5.355a16.873,16.873,0,0,1,16.245-.538,23.975,23.975,0,0,1,12.756,17.806c.894,6.255-.509,12.486-1.866,18.512-.339,1.506-.659,2.928-.942,4.342a65.608,65.608,0,0,1-1.94,6.76c-1.516,4.7-3.235,10.019-2.645,13.679a6.073,6.073,0,0,0,.714,2.041c.7-2.94,1.451-5.71,2.106-8.142.4-1.489.781-2.9,1.084-4.1.691-2.743,1.718-5.877,2.806-9.193,3.716-11.33,8.34-25.431,2.709-34.265-2.773-4.351-8-7.439-15.966-9.44-4.232-1.063-8.18-.666-12.359-.248a47.934,47.934,0,0,1-9.624.3c-5.491-.54-9.346-2.317-11.785-5.432-3.653-4.664-3.417-11.479-2.528-18.507-3.609,1.774-6.484,4.3-7.9,7.911.028.2.086.576.147.967,1.99,12.8,1.783,19.177-.672,20.686-.987.607-2.193.41-3.583-.587-.862-.619-.87-2.172-.881-4.322-.009-1.838-.024-4.615-.887-5.063-.193-.1-.806-.218-2.33.844-1.267.882-1.427,3.108-1.6,5.465-.182,2.535-.37,5.155-1.937,6.9a.83.83,0,0,1-1.034.161c-2.427-1.42-3.006-4.021-3.032-6.6-.793,2.94-1.942,6.07-5.285,5.318a.842.842,0,0,1-.648-.694,12.473,12.473,0,0,1,.217-4.576,7.216,7.216,0,0,1-2.2,2.946.841.841,0,0,1-1.094-.094,5.653,5.653,0,0,1-1.513-5.037c.853-5.709,8.349-12.653,11.962-14.621a20.07,20.07,0,0,1,3.431-1.149,37.335,37.335,0,0,0,4.618-1.517c1.373-.61,1.607-1.044,1.581-1.148-.412-1.636-4.838-.8-7.482-.305a15.155,15.155,0,0,1-3.246.422.833.833,0,0,1-.752-.709,16.232,16.232,0,0,1,.9-6.734,22.9,22.9,0,0,0,.877-3.982c.315-3.333.452-6.859.446-11.434,0-1.122-.008-2.244-.015-3.367-.039-6.553-.079-13.329.97-19.791.523-3.225,1.1-6.41,1.667-9.49.723-3.962,1.471-8.058,2.094-12.245,1.246-8.366,4.732-14.6,10.361-18.528.109-.076,10.919-7.567,15.747-6.59.2.04.382.087.561.143.084-.547.162-1.077.227-1.585-.726-.023-1.479,0-2.213.02-2.323.066-4.518.129-5.588-1.234-.639-.814-.743-1.961-.318-3.509,1.113-4.049-.424-5.426-1.911-6.757-1.022-.916-2.181-1.954-1.662-3.721a.844.844,0,0,1,.1-.205c2.243-3.532,2.041-5.252,1.807-7.243a17.383,17.383,0,0,1-.154-2.035A7.927,7.927,0,0,1,468.7,146.8c.339-.6.762-1.341,1.28-2.334a10.46,10.46,0,0,1,3.086-3.567,3.931,3.931,0,0,1-.764-.947,4.572,4.572,0,0,1-.081-4.644,7.626,7.626,0,0,1,5.939-3.617,13.618,13.618,0,0,1,5.536,1.446,16.472,16.472,0,0,0,4.26,1.343,30.737,30.737,0,0,0,3.787.086c2.708-.046,5.508-.095,8.023,1.236,5.462,2.893,6.919,9.831,4.212,20.064-.619,2.341-1.429,4.664-2.212,6.91-.472,1.356-.952,2.733-1.391,4.12a18.336,18.336,0,0,1,1.62,8.935q.8.3,1.754.568c13.081,3.718,26.608,7.562,31.863,23.575a81,81,0,0,1,2.447,10.569,84.94,84.94,0,0,0,2.278,10.037c.61,1.943,1.271,3.756,1.91,5.509,1.677,4.6,3.262,8.946,3.547,14.6.386,7.643-2.38,15.2-8.457,23.111l-.528.69a70.931,70.931,0,0,1-8.793,10.018,18.6,18.6,0,0,1,11.078,7.758c4.323,6.021,5.2,13.083,2.618,20.989a88.34,88.34,0,0,1-5.737,12.667c-4.315,8.351-8.778,16.985-7.127,26.436q.049.281.113.573c1.793-3.734,3.856-7.323,5.881-10.846,3.44-5.984,7-12.172,8.975-18.734,1.745-5.788,2.305-18.226,2.22-19.789a.829.829,0,0,1,.068-.733.853.853,0,0,1,.832-.393h.4a.873.873,0,0,1,.884.708.829.829,0,0,1-.82.949h.3c.037,1.168-.058,3.258-.365,7.073a72.194,72.194,0,0,1-1.938,12.663c-2.033,6.744-5.638,13.016-9.125,19.082-2.326,4.047-4.7,8.181-6.643,12.5.122.4.251.809.382,1.223,1.168,3.709,2.492,7.913.76,10.823a6.677,6.677,0,0,1-4.4,2.887c.182,1.31.47,2.6.774,3.965a41.439,41.439,0,0,1,1.134,7.169l.022.412a12.977,12.977,0,0,1-.272,4.472c3.137,1.788,8.472,6.037,8.262,10.043-.108,2.048-1.587,3.616-4.4,4.658-5.108,1.9-16.423-1.648-19.67-5.3-5.59-6.294-4.112-18.739-1.687-29.53a7.8,7.8,0,0,1-1.849-3.93c-.654-4.053,1.13-9.578,2.7-14.452a64.617,64.617,0,0,0,1.892-6.576c.287-1.434.609-2.866.95-4.382,1.324-5.88,2.693-11.961,1.843-17.914a22.584,22.584,0,0,0-11.842-16.551,15.261,15.261,0,0,0-14.693.483c-2.852,1.644-5.591,3.5-8.239,5.291s-5.378,3.642-8.247,5.3a37.237,37.237,0,0,1-8.872,3.364,51.95,51.95,0,0,1,2.89,4.749,103.559,103.559,0,0,1,5.739,13.71c.641,1.759,1.3,3.578,1.994,5.365,2.246,5.81,2.73,11.119,3.241,16.739.146,1.61.3,3.273.494,5a5.5,5.5,0,0,1,2.55.6,2.268,2.268,0,0,1,1.168,1.838c.077,1.065-.752,1.933-2.105,2.674.827,1.705,1.865,3.4,2.886,5.059a44.477,44.477,0,0,1,3.648,6.772c1.309,3.346,1.665,6.286,1.072,8.675,3.692.039,6.378.507,7.788,5.205,1.206,4.017-.077,6.83-4.161,9.12-4.544,2.55-10.322,2.361-15.911,2.177a60.168,60.168,0,0,0-7.794.066A45.954,45.954,0,0,1,463.088,394.879Zm-8.224-11.98c-5.448,0-8.732,1.328-9.057,2.583-.1.395-.085,1.878,4.44,4.383,5.337,2.954,10.181,3.826,17.278,3.108a61.578,61.578,0,0,1,8.015-.073c5.36.176,10.9.358,15.046-1.966,3.417-1.916,4.366-3.935,3.386-7.2-1.1-3.656-2.661-4.011-6.809-4.027a7.387,7.387,0,0,1-.715,1.15c-2.121,2.8-6.149,4-11.652,3.464-2.14-.209-4.99-.688-5.046-2.417-.057-1.749,3.069-2.888,6.013-3.371a50.624,50.624,0,0,1,8.83-.487c.473,0,.949,0,1.458,0,.664-2.105.365-4.849-.894-8.07a42.672,42.672,0,0,0-3.517-6.508c-1.05-1.71-2.118-3.449-2.979-5.229a48.148,48.148,0,0,1-5.717,1.739c-.593.152-1.106.283-1.372.369-.532.171-1.085.37-1.671.582-.548.2-1.111.4-1.682.589a30.941,30.941,0,0,0,1,4.026c.834,2.8,1.7,5.7,1.053,8.462-2.077,8.914-10.707,8.9-15.334,8.886Zm-98.489,7.257c3.015,1.7,4.853.86,8.141-.636l.532-.241c3.812-1.722,5.955-2.478,10.443-2.478h.063c5.474,0,13.4-.434,19.206-4.142,1.624-1.037,4.993-4.861,4.376-6.756-.811-2.494-6.092-1.962-8.348-1.735-1.6.161-3.144.46-4.642.75-5.52,1.068-10.734,2.076-14.261-5.231a38.017,38.017,0,0,1-2.131-5.454,15.54,15.54,0,0,0-2.006-.158,32.767,32.767,0,0,0-3.981.361C355.169,375.947,352.75,384.37,356.375,390.156Zm155.573-32.608c-2.219,10.183-3.435,21.531,1.523,27.113,2.843,3.2,13.457,6.481,17.856,4.851,2.133-.791,3.25-1.865,3.32-3.193.143-2.728-3.972-6.564-7.358-8.482a5.328,5.328,0,0,1-3.335,1.862,11.449,11.449,0,0,1-7.879-1.988,4.042,4.042,0,0,1-1.793-2.847.829.829,0,0,1,.5-.824c2.923-1.26,6.879-.734,11.766,1.562a13.494,13.494,0,0,0,.11-3.621l-.022-.416a40.121,40.121,0,0,0-1.1-6.895c-.3-1.349-.6-2.672-.788-4.035-3.728.441-8.859-.318-12.34-2.747Q512.172,357.722,511.948,357.548Zm-179.574-10.3a12.918,12.918,0,0,0,2.81,3.094c.275.249.552.5.827.756,6.027,5.615,7.694,11.977,5.4,20.628-.932,3.52-2.33,5.41-4.924,8.081-.29.3-.706.661-1.187,1.081-1.564,1.363-4.475,3.9-3.67,5.323a2.807,2.807,0,0,0,2.263,1.177c4.98.615,14.315-3.672,16.043-5.493,1.879-1.98,4.8-10.468,6.148-18.113-.776-2.545-.473-6.6.211-11.1a5.241,5.241,0,0,0-.222-.552,2.057,2.057,0,0,0-1.521-1.338c-.149.559-.291,1.184-.438,1.835-.911,4.008-2.289,10.064-8.149,9.048a.829.829,0,0,1-.686-.792c-.06-2.048.937-3.663,1.9-5.226a8.564,8.564,0,0,0,1.723-4.4c.009-2.689-1.645-4.506-3.559-6.61l-.5-.548q-.879-.975-1.754-1.9c-1.048,1.214-3.914,2.568-9.587,4.638C333.03,347,332.631,347.143,332.374,347.244Zm139.08,34.584c.217.168,1,.6,3.5.846,4.9.478,8.416-.494,10.171-2.815.038-.05.075-.1.111-.152l-.652,0a48.7,48.7,0,0,0-8.556.465C473.1,380.649,471.754,381.472,471.453,381.827Zm44.651-6.506a3.321,3.321,0,0,0,.967,1.068,10.042,10.042,0,0,0,6.55,1.688,4.09,4.09,0,0,0,2.151-1.007C522.808,375.689,519.028,374.463,516.1,375.321Zm-145.059-12.6.3.039c1.742.227,4.984.647,5.592.359,1.408-.96,1.193-4.467,1.035-7.027a23.058,23.058,0,0,1-.067-3.075,79.766,79.766,0,0,1,1.953-11.981c.846-3.342,1.885-6.8,2.89-10.15,3.122-10.395,6.326-21.062,4.925-31.328a42.6,42.6,0,0,0-4.517,5.5,59.528,59.528,0,0,1,.085,19.6c-.952,6.547-3.128,13.023-5.233,19.286q-.345,1.029-.683,2.039c-1.573,4.72-4.337,8-7.361,11.287A39.6,39.6,0,0,0,371.046,362.725Zm-2.531-3.884c-1.11,1.2-2.237,2.427-3.308,3.737.784-.071,1.6-.114,2.455-.158a11.187,11.187,0,0,1,1.611.09Q368.807,360.685,368.515,358.841Zm-21.541,1.275c3.419.135,4.5-3.336,5.526-7.864.211-.927.41-1.8.643-2.558a.828.828,0,0,1,.732-.583,3.484,3.484,0,0,1,2.836,1.028c.181-1.048.376-2.111.575-3.173.2-1.092.382-2.036.469-2.639,1.005-6.968,2.078-13.257,5.032-19.647a45.852,45.852,0,0,1,3.42-5.66c2.958-4.438,6.311-9.469,5.286-13.632-.369-1.5-.952-2.416-1.641-2.578-.8-.185-1.958.514-3.108,1.875a13.932,13.932,0,0,0-1.782,2.749,11,11,0,0,1,.323,3.352c-.025.352-.03.661-.035.96a3.327,3.327,0,0,1-1.622,3.318.828.828,0,0,1-1.224-.369c-.854-2.037-.361-4.865.792-7.418-1.476-5.119-6.393-11.641-12.418-16.038-5.138-3.75-9.978-5.142-13.281-3.815-3.745,1.5-6.907,4.537-9.964,7.471a51.218,51.218,0,0,1-6.824,5.826,36.885,36.885,0,0,1-7.388,3.924,53.631,53.631,0,0,1,6.042,8.578c.736,1.207,1.372,2.25,1.914,3.025a94.855,94.855,0,0,0,11.857,13.8c.863.834,1.715,1.651,2.558,2.458,3.567,3.417,6.936,6.645,10.387,10.475l.491.541c1.968,2.161,4,4.4,3.991,7.73a9.947,9.947,0,0,1-1.97,5.266A9.672,9.672,0,0,0,346.974,360.115Zm130.18-5.994a20.2,20.2,0,0,0-5.52,1.221c-2.5,1.125-3.429,2.576-3.524,4.468.414-.142.824-.289,1.225-.435.6-.217,1.167-.421,1.728-.6.314-.1.823-.231,1.467-.4a48.294,48.294,0,0,0,5.427-1.634l.028-.011A17.011,17.011,0,0,1,477.154,354.122Zm35.2,1.6a9.014,9.014,0,0,0,1,.806c3.112,2.172,7.877,2.855,11.216,2.458a18.74,18.74,0,0,1,.705-6.573,55.723,55.723,0,0,1,2.594-7.115,24.278,24.278,0,0,1-.655-2.657c-1.747-10,2.846-18.887,7.288-27.481a85.827,85.827,0,0,0,5.633-12.421c2.446-7.481,1.665-13.862-2.389-19.509-3.446-4.8-6.819-6.281-11.347-7.445a6.894,6.894,0,0,1-4.478,1.617.829.829,0,0,1-.737-.851,13.218,13.218,0,0,0-.1-2.034,8.765,8.765,0,0,1-3.033-1.432,12.194,12.194,0,0,1-1.413,3.183,14.334,14.334,0,0,1-9.742,6.272c-2.524.47-9.569,1.088-11.831-1.676-.556-.68-1.237-1.689-.732-2.609.67-1.222,2.724-.992,5.114-.708-2.1-1.487-4.493-3.335-4.044-6.034a.828.828,0,0,1,.658-.677,2.033,2.033,0,0,0,.814-.358l-.094-.113a4.074,4.074,0,0,0-.962-.94.829.829,0,0,1-.409-.888c.336-1.66.9-2.66,1.772-3.146,1.119-.624,2.343-.17,3.422.23,1.205.447,1.82.612,2.251.2.343-.327.4-.474-.577-1.641-.676-.809-1.7-2.037-1.186-3.444-1.685.109-3.477.161-5.4.159-6.672-.009-18.04-.018-26.435,3.368-.941,7.033-1.37,13.9,2.059,18.276,2.145,2.739,5.626,4.31,10.643,4.8a46.84,46.84,0,0,0,9.3-.3c4.137-.414,8.414-.843,12.928.289,8.4,2.109,13.947,5.431,16.959,10.156,6.052,9.5,1.292,24.009-2.532,35.671-1.079,3.288-2.1,6.395-2.773,9.081-.306,1.216-.687,2.629-1.09,4.125C514.008,349.126,513.144,352.335,512.358,355.724Zm16.279-7.964a51.237,51.237,0,0,0-1.764,5.108,17.075,17.075,0,0,0-.66,5.811,4.888,4.888,0,0,0,3.143-2.068C530.626,354.478,529.642,350.975,528.637,347.76ZM478.853,354.1a15.985,15.985,0,0,0,.637,1.93c1.135-.643,1.125-1.035,1.124-1.04a.622.622,0,0,0-.363-.535A3.331,3.331,0,0,0,478.853,354.1Zm-97.037-47a72.566,72.566,0,0,0-8.168,19.588c-2.445,9.323-4.614,18.993-3.9,28.362a27.015,27.015,0,0,0,6.014-9.594q.337-1.012.685-2.043c2.081-6.193,4.232-12.6,5.164-19A59.527,59.527,0,0,0,381.816,307.106Zm-41.391,33.967c-2.44,0-5.89,1.3-7.233,2.77a4.259,4.259,0,0,0-1.046,1.716l.792-.291c6.1-2.225,8.215-3.405,8.811-4.029A4.71,4.71,0,0,0,340.425,341.073Zm116.847-38.908A2.837,2.837,0,0,0,458.08,305a4.856,4.856,0,0,0,3.11.626A12.166,12.166,0,0,0,457.272,302.165Zm-151.779.761c.218.4,1.611,1.368,4.05,1.018.137-.019.275-.041.414-.066a5.714,5.714,0,0,0-2.274-.991A4.02,4.02,0,0,0,305.493,302.926Zm50.118-39.7A21.942,21.942,0,0,0,357.716,269c2.13,3.969,5.744,7.089,9.24,10.108,1.479,1.277,3.009,2.6,4.413,3.97a40.306,40.306,0,0,1,11.325,19.8,42.359,42.359,0,0,1,4.65-5.318A31.624,31.624,0,0,0,385,290.353c-2.883-6.209-7.735-10.072-12.871-14.161-1.466-1.168-2.983-2.375-4.442-3.636-1.435-1.24-2.69-2.477-3.9-3.674-2.463-2.429-4.625-4.561-7.427-5.824C356.115,263.12,355.865,263.175,355.611,263.222Zm89.34,21.857a.818.818,0,0,1,.322.065.828.828,0,0,1,.506.79c-.022.658-.087,1.376-.156,2.136-.271,2.992-.575,6.349,1.422,8.086.8-1.361.946-3.367,1.085-5.315.19-2.641.385-5.372,2.3-6.706,1.688-1.176,3.01-1.488,4.038-.954,1.752.909,1.767,3.892,1.781,6.525a11.4,11.4,0,0,0,.23,3.012c.544.384,1.267.767,1.711.494.785-.483,2.347-3.3-.1-19.021-.217-1.394-.217-1.394-.127-1.632,1.691-4.489,5.313-7.466,9.778-9.44q.175-1.256.359-2.51c.015-.1.03-.206.045-.309a9.21,9.21,0,0,1-1.913.241,4.383,4.383,0,0,1-3.849-1.64c-2.19-3.007-.048-9.339,1.672-14.427.6-1.76,1.109-3.28,1.342-4.364a61.073,61.073,0,0,0,.831-8.263q-.614-1.827-1.35-3.588c-.412-.983-.972-2.147-1.564-3.379-2.873-5.972-6.808-14.15-2.851-19.587a.83.83,0,0,1,.8-.331,5.094,5.094,0,0,1,3.385,2.371c3.288,4.795,3.661,16.071,3.261,24.315a54.743,54.743,0,0,1,2.253,26.238c.628-.26,1.253-.548,1.872-.833a29.858,29.858,0,0,1,3.246-1.342,48.645,48.645,0,0,1,8.96-1.658c.872-.106,1.737-.211,2.59-.328,8.874-1.225,17.7-.205,23.621,2.727q.578.287,1.146.63a15.8,15.8,0,0,0,6.364-4.094c3.077-3.393,4.251-8.279,3.592-14.939a61.71,61.71,0,0,0-2-9.751,48.989,48.989,0,0,1-2.122-12.43v-.212c-.019-2.693-.065-9,3.518-9.733a2.9,2.9,0,0,1,2.608.61c2.036,1.782,1.7,6.62,1.544,8.945l-.029.434c-.084,1.355-.183,2.719-.282,4.091-.422,5.814-.857,11.826-.179,17.869.243,2.162.753,3.5,1.474,3.86,1,.5,2.871-.587,4.855-1.741,2.448-1.423,5.217-3.035,8.046-2.782a.828.828,0,0,1,.754.836c-.043,3.2-3.169,4.814-5.68,6.115-.571.3-1.11.574-1.573.85-3.413,2.036-4.6,3.647-6.5,6.837-1.915,3.214-3.785,4.725-6.372,6.817l-.824.668c-1.3,1.06-1.913,1.618-2.106,2.125a26.011,26.011,0,0,1,5.879,11.719l1.123.259c.817.188,1.6.368,2.365.554,3.6-2.834,7.751-8.28,9.446-10.5l.531-.7c5.827-7.583,8.482-14.785,8.117-22.017-.273-5.406-1.816-9.638-3.449-14.117-.646-1.771-1.313-3.6-1.935-5.58a86.314,86.314,0,0,1-2.326-10.233,79.687,79.687,0,0,0-2.392-10.354c-4.98-15.177-17.493-18.733-30.741-22.5q-.8-.228-1.509-.475a8.025,8.025,0,0,1-.212.857c-1.025,3.3-4.322,6.679-8.024,8.735-1.335,2-4.492,6.011-8.591,6.556a7.223,7.223,0,0,1-5.936-2.051c-3.292-2.964-2.9-7.661-2.3-11.717a3.89,3.89,0,0,0-.636-.185c-3.161-.64-11.115,3.984-14.47,6.325-5.24,3.657-8.494,9.516-9.67,17.414-.628,4.213-1.378,8.323-2.1,12.3-.561,3.072-1.14,6.248-1.661,9.457-1.027,6.326-.987,13.032-.949,19.517.006,1.125.013,2.25.015,3.375.006,4.629-.134,8.2-.454,11.591a24.447,24.447,0,0,1-.931,4.276,17.1,17.1,0,0,0-.925,5.306c.565-.069,1.328-.212,2.12-.361,3.631-.684,8.6-1.62,9.395,1.528.607,2.41-3.44,3.556-7.353,4.663a21.065,21.065,0,0,0-3.09,1.01c-3.5,1.906-10.375,8.444-11.117,13.411a4.159,4.159,0,0,0,.564,3.024,9.3,9.3,0,0,0,1.455-2.587,9.258,9.258,0,0,1,2.425-3.731.828.828,0,0,1,1.124.058q.177.181.357.359a.828.828,0,0,1,.2.856q-.145.426-.289.843c-.81,2.349-1.518,4.4-1.323,6.832,1.573-.036,2.207-2.017,3.007-5.118.492-1.906.957-3.707,1.931-4.723A.827.827,0,0,1,444.951,285.079Zm50.907-6.015a3.137,3.137,0,0,0,.494.754c1.508,1.843,7.416,1.623,10.245,1.1a12.7,12.7,0,0,0,8.644-5.525,10.605,10.605,0,0,0,1.465-3.754,13.326,13.326,0,0,1-1.1-2.162,11.218,11.218,0,0,0-2.424-3.865c-1.331-1.333-3.044-1.616-4.858-1.916-1.893-.313-4.005-.663-5.681-2.343-.122.451.2.919.91,1.773.752.9,2.012,2.41.449,3.9-1.227,1.171-2.748.607-3.97.154-.817-.3-1.588-.59-2.041-.336-.242.135-.568.51-.835,1.51a7.549,7.549,0,0,1,.9.954,3.71,3.71,0,0,0,.628.655.828.828,0,0,1-.166,1.5,2.456,2.456,0,0,0-.643.344,4.358,4.358,0,0,1-.858.474c.109,1.609,2.035,2.964,3.751,4.171a18.248,18.248,0,0,1,1.9,1.457.828.828,0,0,1-.352,1.4,9.371,9.371,0,0,1-2.98-.108A13.467,13.467,0,0,0,495.858,279.065Zm26.939-4.131q.034.4.046.788a4.918,4.918,0,0,0,1.31-.476l-.841-.194Zm-4.359-3.762a5.363,5.363,0,0,0,2.315,1.5,23.339,23.339,0,0,0-2.6-6.284A13.853,13.853,0,0,1,518.439,271.171Zm-14.309-10.7a8.64,8.64,0,0,0,4.467,1.588c1.992.33,4.052.671,5.759,2.379a11.646,11.646,0,0,1,2.421,3.583,13.492,13.492,0,0,0-.351-1.736,16.206,16.206,0,0,0-.913-2.481,5.934,5.934,0,0,1-.554-1.77,20.217,20.217,0,0,0-3.538-3.1A36.122,36.122,0,0,1,504.13,260.471ZM332.682,184.492c-3.652,1.2-8.849,4.125-12.059,5.933-1.292.728-2.408,1.357-3.22,1.771-6.129,3.13-10.214,8.388-12.489,16.075-3.667,12.387-4.108,31.336,2.145,43.583,2.484,4.865,9.421,12.607,15.466,13.878a6.7,6.7,0,0,0,5.623-1.124,7.814,7.814,0,0,0-.118-2.239,9.707,9.707,0,0,1-6-3.554c-1.754-2.392-2.155-5.8-1.225-10.432a46.93,46.93,0,0,0,.479-11.184c-.094-2.569-.19-5.224-.02-8.03.027-.452.07-1,.12-1.615.063-.786.136-1.708.2-2.7a2.254,2.254,0,0,1-.89,1.408c-1.421.967-3.528-.429-4.989-1.564-5.862-4.549-4.983-16.326-1.83-22.118,2.805-5.154,7.162-7.887,11.375-10.53a59.364,59.364,0,0,0,5.967-4.095,10.573,10.573,0,0,0,1.559-1.569Q332.7,185.438,332.682,184.492Zm30.423,52.2c.075.828.16,1.654.243,2.474.067.657.133,1.308.194,1.952.105,1.108.175,2.38.248,3.727.321,5.855.76,13.873,4.786,16.58,1.86,1.251,4.341,1.315,7.583.2,1.9-.657,4.1-1.949,4.431-3.234a4.023,4.023,0,0,0,.2-1.42,4.928,4.928,0,0,0-.722.012,4.749,4.749,0,0,1-3.318-.724,8.061,8.061,0,0,1-2.286-3.926,9.07,9.07,0,0,1-2.935-2.2c-2.08-2.382-2.745-5.851-1.923-10.033.591-3.005,1.6-6.316,2.67-9.821,3.048-9.99,6.5-21.314,1.586-30.114-2.708-4.849-10.649-9.892-16.286-10.5.155,4.964-1.837,7.068-3.6,7.959-3.955,2-10.021-.418-13.971-3.841-2.889-2.5-4.564-5.336-4.81-7.981-.222.375-.462.74-.718,1.091a25.3,25.3,0,0,0,.947,4.8c2.046,6.75,6.99,10.984,12.225,15.467q1.019.873,2.046,1.763c9.155,7.985,7.633,20.55,6.291,31.637-.365,3.011-.709,5.856-.838,8.517l-.033.674a64.245,64.245,0,0,0,.087,11.122q.657.2,1.268.443a3.8,3.8,0,0,0,1.438-.773c1.389-1.362,1.434-4.537,1.469-7.088.013-.966.026-1.878.1-2.66a142.7,142.7,0,0,1,1.945-14.186,40.983,40.983,0,0,1,0-9.332c.071-.5.144-1.089.224-1.73.5-4.014,1.185-9.511,3.185-12.025.565-.709,2.066-2.594,3.438-1.872,2.228,1.173.223,8.11.2,8.179-.552,1.8-1.223,3.538-1.872,5.215-.5,1.306-1.027,2.656-1.472,3.992A66.388,66.388,0,0,0,363.105,236.689Zm106.8,23.083q-.077.535-.155,1.075-.112.777-.225,1.556c8.6-3.176,19.593-3.167,26.177-3.159h.094a52.646,52.646,0,0,0,13.614-1.46c-6.61-3.139-15.84-3.315-22.345-2.417-.861.119-1.736.225-2.617.332a47.381,47.381,0,0,0-8.654,1.592,28.062,28.062,0,0,0-3.059,1.27C471.8,258.987,470.86,259.42,469.9,259.772Zm-140.487,1.179q.509.083,1.055.141l.2.022c11.838,1.274,14.9-.064,15.679-.976a1.012,1.012,0,0,0,.259-.709q-.965-.266-1.926-.526c-2.052-.558-4.174-1.135-6.21-1.793a.829.829,0,0,1-.5-1.118,12.469,12.469,0,0,0,.547-1.769c.114-.439.23-.886.371-1.325-.412.133-.839.286-1.282.444-2.876,1.029-6.456,2.308-8.866-1.079a.828.828,0,0,1-.105-.758c.231-.647.5-1.263.758-1.86a9.552,9.552,0,0,0,1.159-4.558,6.176,6.176,0,0,0-3.85,2.724c-1.177,2.263.069,5.6,1.275,8.835A42.909,42.909,0,0,1,329.414,260.951Zm183.862-2.724a22.1,22.1,0,0,1,2.243,1.979,12.589,12.589,0,0,1,2.222-2.155l.829-.672c2.546-2.058,4.227-3.417,5.991-6.377,2.08-3.489,3.523-5.291,7.079-7.411.506-.3,1.066-.591,1.66-.9,1.932-1,4.088-2.116,4.647-3.831-2.05.168-4.225,1.432-6.173,2.565-2.486,1.446-4.633,2.694-6.432,1.788a4.245,4.245,0,0,1-1.97-2.918c.212,5.95-1.163,10.482-4.178,13.806A16.809,16.809,0,0,1,513.275,258.226Zm-45.707-21.75a39.581,39.581,0,0,1-.545,3.982A46.875,46.875,0,0,1,465.631,245c-1.514,4.477-3.588,10.608-1.9,12.921a2.8,2.8,0,0,0,2.487.959,8.289,8.289,0,0,0,2.192-.363,62.668,62.668,0,0,0,.776-8.578A57.857,57.857,0,0,0,467.568,236.476Zm-91.743,14.635a14.4,14.4,0,0,0,6.082.777c4.332-.255,11.888-6.935,12.472-11.729a3.051,3.051,0,0,0-2.571,1.365.828.828,0,0,1-1.456-.244,6.273,6.273,0,0,1-.094-4c-.178-.135-.306-.178-.375-.161-.7.154-1.525,2.8-1.878,3.935a11.839,11.839,0,0,1-.836,2.236.828.828,0,0,1-1.38.063,5.721,5.721,0,0,1-.8-2.994c-.142-1.794-.317-1.96-1.058-1.934-.636.021-.8.323-1.147,1.253s-.906,2.425-2.97,2.108a17.585,17.585,0,0,0,0,3.49c.14,2.243.242,3.863-.8,4.384a1.788,1.788,0,0,1-1.571.075c-1.211-.533-1.735-2.367-2.241-4.142l-.048-.166a14,14,0,0,0,.086,2.66A20.31,20.31,0,0,0,375.825,251.112ZM521.691,207.5a2.056,2.056,0,0,0-.409.044c-1.492.305-2.231,3.03-2.194,8.1l0,.214a47,47,0,0,0,2.067,12.016c.542,2.055,1.095,4.154,1.513,6.354a121.9,121.9,0,0,1,.469-14.345c.1-1.366.2-2.724.281-4.074l.03-.446c.119-1.735.436-6.344-.982-7.585A1.1,1.1,0,0,0,521.691,207.5Zm-154.164,5.672a5.114,5.114,0,0,0-1.385,1.363c-1.709,2.149-2.388,7.595-2.837,11.2-.081.651-.155,1.245-.227,1.756a27.478,27.478,0,0,0-.25,3.394q.345-1.19.743-2.388c.457-1.373.987-2.742,1.5-4.066.638-1.65,1.3-3.355,1.832-5.1C367.629,216.952,367.853,213.928,367.527,213.176Zm93.975-6.448c-2.831,4.671.705,12.021,3.31,17.435.578,1.2,1.124,2.336,1.546,3.33.064-7.342-.607-15.628-3.071-19.221A3.852,3.852,0,0,0,461.5,206.728Zm-142.431,5.384c.191.745.47,1.7.715,2.539a46.6,46.6,0,0,1,1.889,8.125C321.8,218.491,321.45,213.645,319.071,212.112Zm17.582-29.6a.828.828,0,0,1,.429,1.014c-.9,2.669.6,6.031,4.014,8.993,4.052,3.513,9.27,5.067,12.138,3.615,2.072-1.048,2.656-3.463,2.693-5.731a6.633,6.633,0,0,1-1.192,1.243,6.765,6.765,0,0,1-5.863,1.417c-4.733-1.036-8.6-6.407-10.133-9.416a20.6,20.6,0,0,1-1.472-3.8A17.647,17.647,0,0,1,336.653,182.513Zm141.59-1.508c-.472,3.528-.579,7.154,1.891,9.378a5.64,5.64,0,0,0,4.609,1.641,10.008,10.008,0,0,0,5.652-3.532,11.92,11.92,0,0,1-2.944.569c-5,.273-6.483-2.867-7.678-5.391A12.2,12.2,0,0,0,478.243,181.005Zm-139.5-2.025a19.4,19.4,0,0,0,1.468,3.914c1.821,3.568,5.418,7.765,9.012,8.552a5.115,5.115,0,0,0,4.483-1.1,8.588,8.588,0,0,0,1.939-2.615,9.664,9.664,0,0,1,3.318-3.888,11.177,11.177,0,0,1,4.18-1.207c1.761-.268,3.425-.521,4.5-1.733,1.249-1.4,1.056-3.014.833-4.877a8.824,8.824,0,0,1,.266-4.6,4.131,4.131,0,0,1,1.852-1.862c.818-.513,1.212-.791,1.226-1.5.01-.46-.467-.915-1.02-1.441a7.171,7.171,0,0,1-1.164-1.308,12.08,12.08,0,0,1-1.716-4.728,14.048,14.048,0,0,0-1.1-3.677,10.854,10.854,0,0,0-1.9-2.625,8.5,8.5,0,0,1-2.608-4.985.827.827,0,0,1,.372-.793c1.065-.689,2.288-1.725,2.066-2.754-.472-2.185-6.224-4.154-9.175-4.6-6.639-1-11.414-.107-15.967,2.976-4.5,3.043-7.017,7.146-7.935,12.913l-.038.236c-.421,2.632-.9,5.616.056,7.982a7.771,7.771,0,0,0,2.079,2.472c.431.4.871.8,1.266,1.233.214-.82.427-1.682.646-2.569,1.356-5.493,2.893-11.719,6.617-15.929,2.369-2.678,11.689-6.858,16.482-5.194a4.4,4.4,0,0,1,3.06,4.223.828.828,0,0,1-.409.761,16.158,16.158,0,0,1-3.969,1.427c-3.743,1-5.992,1.818-5.123,6a15.651,15.651,0,0,0,1.223,3.168c.942,2.017,1.832,3.921.861,5.388-.773,1.169-2.552,1.663-5.6,1.558a.828.828,0,0,1-.8-.792c-.075-1.746-.82-2.705-2.1-2.705h-.033a4.535,4.535,0,0,0-4.006,4.491,11.105,11.105,0,0,0,1,2.822c.931,2.127,1.465,3.486,1.048,4.419-.536,1.2-1.913,1.66-3.245,2.1A8.4,8.4,0,0,0,338.746,178.98Zm139.79.038a9.9,9.9,0,0,1,2.734,3.943c1.184,2.5,2.207,4.658,6.091,4.446a12.669,12.669,0,0,0,5.027-1.542,34.107,34.107,0,0,0,4.436-11.493,5.389,5.389,0,0,1-.39-.606c-1.268-2.3-.51-4.879.367-7.865l.131-.445a3.186,3.186,0,0,0-1.9-.322.828.828,0,0,1-.513-1.539c2.448-1.419,4.259-4.5,3.228-7.325-1.954-.656-3.356-.1-4.968.536a9.313,9.313,0,0,1-5.458.862.828.828,0,0,1-.663-.969c.349-1.843-.41-2.908-1.289-4.14a6.656,6.656,0,0,1-1.528-3.374,8.63,8.63,0,0,1,.668-4.164,2.892,2.892,0,0,0,.241-.795c-.033-.091-.325-.448-2.674-1.231a14.466,14.466,0,0,0-3.28-.477,15.235,15.235,0,0,1-4.186-.7,9.116,9.116,0,0,0-3.164,3.414c-.532,1.02-.963,1.778-1.309,2.386a6.361,6.361,0,0,0-1.222,4.341,15.66,15.66,0,0,0,.143,1.846c.246,2.093.5,4.257-1.986,8.219-.14.635.22,1.028,1.206,1.911,1.508,1.351,3.788,3.392,2.4,8.43a2.634,2.634,0,0,0,.024,2.047c.554.706,2.427.653,4.239.6a27.645,27.645,0,0,1,3.256.036.828.828,0,0,1,.749.9c-.091.957-.248,1.97-.413,3.043C478.539,179,478.538,179.01,478.536,179.018Zm19.673-3.287a37.858,37.858,0,0,1-2.8,8.157A13.517,13.517,0,0,0,500,177.882a7.234,7.234,0,0,0,.225-.991A11.077,11.077,0,0,1,498.209,175.731Zm-162.692-1.684a49.631,49.631,0,0,0-1.152,8.341q.3-.044.59-.064A16.6,16.6,0,0,0,335.517,174.047Zm.753-3.192a16.278,16.278,0,0,1,1.185,7.034,7.814,7.814,0,0,1,2.723-1.307c.993-.332,2.018-.674,2.258-1.21a10.5,10.5,0,0,0-1.053-3.08,10.225,10.225,0,0,1-1.136-3.515,6.181,6.181,0,0,1,5.641-6.118c1.6-.014,3.342.909,3.734,3.511h0c2.488,0,3.218-.508,3.431-.83.458-.693-.273-2.259-.981-3.773a16.773,16.773,0,0,1-1.344-3.532c-1.232-5.933,2.955-7.047,6.319-7.942a18.375,18.375,0,0,0,3.094-1.011,2.644,2.644,0,0,0-1.893-2.235c-4.009-1.39-12.608,2.363-14.7,4.727-3.455,3.906-4.94,9.921-6.25,15.229-.236.957-.465,1.884-.7,2.764Q336.434,170.209,336.27,170.855Zm162.354,3.058a7.407,7.407,0,0,0,1.749,1.209,18.547,18.547,0,0,0-.746-5.666c-.169.638-.324,1.276-.458,1.913l-.046.218C498.955,172.377,498.792,173.152,498.624,173.914Zm-.324-7.236a13.66,13.66,0,0,0-.854,4.832c.019-.088.038-.177.056-.265l.046-.218c.279-1.319.636-2.634,1.034-3.937C498.492,166.946,498.4,166.808,498.3,166.678Zm.541-1.872q.183.17.357.36c.328-.987.669-1.966,1.007-2.934.772-2.217,1.571-4.51,2.174-6.789,1.734-6.556,2.555-15.03-3.385-18.176-2.137-1.132-4.606-1.089-7.219-1.044a32.621,32.621,0,0,1-3.993-.1,17.676,17.676,0,0,1-4.716-1.459,12.252,12.252,0,0,0-4.833-1.322,5.93,5.93,0,0,0-4.556,2.759,2.9,2.9,0,0,0,.061,3.016,2.424,2.424,0,0,0,.817.832c4.421-2.411,10.563-2.555,15.43-.863,6.982,2.428,10.163,13.547,9.776,20.64A23.948,23.948,0,0,1,498.841,164.806Zm-1.765-1.086c.1.037.207.077.309.121q.078-.3.152-.6Q497.314,163.488,497.075,163.72Zm-8.679-7.588a8.692,8.692,0,0,0,3.778-.865,8.368,8.368,0,0,1,5.633-.708c-.9-5.818-3.692-12.279-8.368-13.9a19.059,19.059,0,0,0-12.567.017c.648.091,1.344.143,2.053.2a15.813,15.813,0,0,1,3.681.557c2.36.787,3.281,1.316,3.648,2.1a2.535,2.535,0,0,1-.194,2.1,6.967,6.967,0,0,0-.563,3.43,5.243,5.243,0,0,0,1.227,2.549A6.84,6.84,0,0,1,488.4,156.132Z" fill="#231f20"/>
  </g>
</svg>
