<svg xmlns="http://www.w3.org/2000/svg" width="134.619" height="170.358" viewBox="0 0 134.619 170.358">
  <g id="Group_666" data-name="Group 666" transform="translate(-168.915 -85.865)">
    <path id="Path_1205" data-name="Path 1205" d="M232.013,256.223a25.485,25.485,0,0,1-18.62-7.922c-4.427-4.454-7.341-9.929-9.468-13.926-.559-1.051-1.088-2.044-1.561-2.859-3.36-5.789-7.829-14.564-11.091-20.971-.679-1.334-1.313-2.577-1.881-3.687-1.539-3-4.008-6.935-6.4-10.738a141,141,0,0,1-7.281-12.433,31.428,31.428,0,0,1-5.674-8.219c-1.707-3.646-1.459-7.179.662-9.45,2.183-2.338,5.825-2.829,9.742-1.313,9.948,3.851,13.36,11.255,15.618,16.155.474,1.029.884,1.919,1.3,2.673a26.2,26.2,0,0,0,8.053,8.774,10.443,10.443,0,0,1,3.546-2.682c7.127-3.345,8.288-10.225,8.578-32.152.086-6.542.133-12.738.174-18.2.1-12.972.175-23.218.7-29.557.355-4.275.852-8.665,2.077-11.812,1.384-3.556,3.656-5.3,6.754-5.169,7.025.288,8.6,9.66,8.794,23.643.018,1.3.081,2.913.154,4.775.241,6.186.556,14.277-.3,20.876.411,2.444.846,5.352,1.361,8.808l.07.471c.227,1.525.6,3.21,1.006,4.992a3.7,3.7,0,0,0,1.352-1.41c2.153-3.709,3.456-23.587,3.887-34.747.085-2.2.14-4.78.2-7.517.181-8.478.387-18.087,1.575-21.919a6.754,6.754,0,0,1,6.318-4.837c1.508.029,5.2.787,6.924,7.2a32.16,32.16,0,0,1,.354,15.818c.582,11.1.489,26.579.289,35.65-.043,1.951-.1,3.716-.152,5.274-.179,5.444-.3,9.041.645,10.014a1.129,1.129,0,0,0,.9.3c.79,0,3.476-1.317,4.852-18.258.493-6.071,1.61-22.613,1.955-30.017.338-7.248,1.542-14.675,7.912-14.8A4.687,4.687,0,0,1,278.8,98.4c3.046,2.949,3.712,10.3,3.874,22.832.133,10.311-.53,19.407-1.115,27.432-.314,4.3-.609,8.355-.772,12.316-.092,2.237-.235,4.634-.485,7.05.742.347,1.438.688,2.075,1.011q1.195.605,2.324,1.235c1.742-7.578,2.926-15.444,3.943-22.2a123.292,123.292,0,0,1,2.47-13.635c.814-2.755,2.831-5.589,6.052-5.284,3.135.3,5.62,3.5,6.042,7.776.677,6.859.206,11.348-.6,14.264q-.085,2.8-.33,6.022c-.647,8.5-1.619,17.559-2.813,26.426a15.032,15.032,0,0,1,1.452,3.891,12.38,12.38,0,0,1-2.881,10.74,9.756,9.756,0,0,1-.948,1.016c-.658,3.861-1.35,7.589-2.067,11.111q-.094.462-.191.93.191.494.355,1.011c2.3,7.251.449,16.953-5.218,27.319-4.993,9.133-9.9,13.809-16.416,15.637-5.4,1.514-12.125,1.177-22.527-1.221a85.163,85.163,0,0,1-18.844,2.146Zm-52.769-69.4c1.5,2.624,3.345,5.555,5.145,8.423,2.407,3.833,4.895,7.8,6.466,10.863.569,1.111,1.2,2.355,1.883,3.691,3.254,6.39,7.711,15.141,11.048,20.891.489.842,1.024,1.847,1.591,2.912,4.179,7.852,11.165,20.976,26.633,20.976h.162a86.11,86.11,0,0,0,15.159-1.4q-.72-.183-1.46-.378a55.417,55.417,0,0,1-7.148-2.389,20.787,20.787,0,0,1-9.7,1.111c-7.351-.731-13.542-6.147-18.4-16.1-3.884-7.953-5.906-16.661-6.992-21.339l-.029-.123A41.44,41.44,0,0,1,202.379,200a15.463,15.463,0,0,1,2.063-6.357,27.766,27.766,0,0,1-8.52-9.311c-.445-.807-.887-1.765-1.355-2.78-2.275-4.937-5.391-11.7-14.717-15.309-3.267-1.265-6.237-.928-7.946.9-1.645,1.762-1.785,4.614-.374,7.63a29.031,29.031,0,0,0,2.921,4.9c-.544-3.3.081-6.516,1.813-8.353,2.344-2.486,5.685-1.655,7.468-.939a13.371,13.371,0,0,1,8,10.549c.493,3.418-.372,6.467-2.257,7.955a5.357,5.357,0,0,1-4.687.716A15.809,15.809,0,0,1,179.244,186.822Zm75.267,66.332c8.36,1.707,14.024,1.843,18.6.56,6.047-1.7,10.657-6.135,15.417-14.842,4.966-9.083,6.909-17.567,5.576-24.16a86.909,86.909,0,0,1-5.335,16.752c-3.995,8.764-9.288,14.168-15.734,16.059a17.206,17.206,0,0,1-6.684.642A54.265,54.265,0,0,1,254.511,253.154Zm-13.773-3.713a54.872,54.872,0,0,0,5.552,1.769q2.49.654,4.731,1.178a56.276,56.276,0,0,0,12.809-4.715,13.1,13.1,0,0,1-5.272-2.939c-4.526-4.174-5.986-11.445-4.111-20.472a26.464,26.464,0,0,1,14.68-18.656c6.63-3.245,14.532-3.909,19.216-1.613a12.425,12.425,0,0,1,1.689,1q.265-1.954.377-3.866a9.1,9.1,0,0,1-2.311-.91c-5.243-2.9-9.183-11.051-6.408-19.154q.451-1.316.866-2.675a32.807,32.807,0,0,0-3.464-2.789c-1.546,6.65-4.461,12.245-10.062,13.448a12.364,12.364,0,0,1-11.495-3.39,15.223,15.223,0,0,1-3.8-14.028,10.544,10.544,0,0,1,2.036-4.544,66.884,66.884,0,0,0-10.316-.623,27.294,27.294,0,0,0-5.251.594,15.963,15.963,0,0,1-1.724,8.962c-2.046,3.566-4.9,5.7-8.04,6.022a8.327,8.327,0,0,1-7.1-2.952l-.042-.048c-.074.109-.148.22-.221.331a50.634,50.634,0,0,0-7.084,18.4l.6.238c6.184,2.468,20.665,8.247,26.962,21.055,5.226,10.629,5.775,20.254,1.506,26.407A13.392,13.392,0,0,1,240.738,249.441Zm-34.921-54.878a13.845,13.845,0,0,0-1.8,5.632,39.851,39.851,0,0,0,1.2,13.4l.029.124c1.072,4.614,3.066,13.2,6.868,20.99,4.592,9.4,10.341,14.511,17.086,15.182a20.5,20.5,0,0,0,7.285-.472,39.06,39.06,0,0,1-16.646-14.456c-4.818-7.607-7.085-17.327-6.558-28.109a69.105,69.105,0,0,1,.866-8.062A53.815,53.815,0,0,1,205.817,194.562Zm9.884,4.861a67.624,67.624,0,0,0-.784,7.507c-.511,10.441,1.669,19.829,6.3,27.148a37.9,37.9,0,0,0,17.5,14.545,11.921,11.921,0,0,0,4.984-4.093c3.918-5.648,3.324-14.666-1.631-24.743-6.018-12.24-20.087-17.855-26.1-20.252Zm75.464,8.835a63.526,63.526,0,0,1-1.531,6.244,87.6,87.6,0,0,1-8.89,19.7,38.786,38.786,0,0,1-11.888,12.4,16.681,16.681,0,0,0,3.712-.659c5.966-1.751,10.912-6.852,14.7-15.163a92.963,92.963,0,0,0,5.85-19.295A12.764,12.764,0,0,0,291.165,208.258Zm-9.669-4a27.305,27.305,0,0,0-11.645,2.822A24.984,24.984,0,0,0,256.058,224.6c-1.752,8.439-.468,15.16,3.616,18.928a11.707,11.707,0,0,0,6.29,2.958,37.7,37.7,0,0,0,13.369-13.122,85.965,85.965,0,0,0,8.725-19.329,60.981,60.981,0,0,0,1.691-7.185,10.714,10.714,0,0,0-2.129-1.376A14.091,14.091,0,0,0,281.5,204.262Zm10.021,1.959a13.293,13.293,0,0,1,2.129,2.685c.532-2.665,1.048-5.439,1.547-8.3a6.962,6.962,0,0,1-3.148.719Q291.9,203.743,291.516,206.22Zm-7.1-28.324a24.2,24.2,0,0,1,7.216,13.69,45.618,45.618,0,0,1,.48,8.091,5.5,5.5,0,0,0,3.45-1.248c.79-4.68,1.529-9.55,2.2-14.483-2.189-3.859-6.322-7.71-11.974-11.136C285.368,174.531,284.913,176.232,284.421,177.9Zm-.548,1.794q-.3.962-.627,1.9c-2.5,7.3.986,14.6,5.648,17.181a7.57,7.57,0,0,0,1.584.665,43.886,43.886,0,0,0-.467-7.608A22.4,22.4,0,0,0,283.873,179.69ZM206.8,193.235a51.453,51.453,0,0,0,7.638,3.895,52.111,52.111,0,0,1,7.263-18.666q.331-.5.673-.985a19.707,19.707,0,0,1-.8-10.937c.826-3.966,2.8-6.78,5.694-8.137a17.312,17.312,0,0,1,7.156-1.423,20.028,20.028,0,0,0,2.329-.169c-.426-1.869-.821-3.637-1.064-5.264l-.07-.471q-.347-2.329-.651-4.311a12.9,12.9,0,0,1-2.669,5.393,5.461,5.461,0,0,1-3.94,1.835,5.949,5.949,0,0,1-4.474-1.763c-2.111-2.065-3.305-5.819-3.276-10.3.03-4.729,1.444-9.124,3.6-11.2a4.705,4.705,0,0,1,3.5-1.434c3.307.112,5.068,1.394,6.28,4.57a21.894,21.894,0,0,1,.715,2.3c.218-5.213,0-10.724-.161-14.952-.073-1.873-.136-3.491-.155-4.816-.219-15.441-2.31-21.822-7.216-22.023-4.871-.2-6.3,5.522-7.124,15.473-.521,6.278-.6,16.5-.7,29.433-.041,5.468-.088,11.667-.174,18.213-.281,21.288-1.175,29.7-9.524,33.62A8.791,8.791,0,0,0,206.8,193.235Zm92.228-6.422c-.442,3.128-.911,6.22-1.4,9.246a10.435,10.435,0,0,0,1.683-8.18Q299.2,187.347,299.029,186.813Zm-121.91-4.006c2.771,2.817,5.75,4.65,8.053,5.195a3.921,3.921,0,0,0,3.288-.406c1.4-1.109,2.051-3.632,1.648-6.429a11.719,11.719,0,0,0-6.989-9.257c-1.7-.684-4.066-1.146-5.657.541C175.523,174.507,175.377,179.04,177.119,182.807Zm80.622-15.42a8.377,8.377,0,0,0-2.4,4.577,13.588,13.588,0,0,0,3.352,12.525,10.744,10.744,0,0,0,9.989,2.948c4.282-.92,7.232-5.15,8.91-12.839q-1.43-.906-3.076-1.77A57.049,57.049,0,0,0,257.741,167.386Zm28.453,3.748c5.279,3.142,9.348,6.676,11.907,10.3,1.07-8.2,1.942-16.5,2.539-24.34q.073-.966.132-1.9-.094.122-.184.229a5.476,5.476,0,0,1-3.9,2.041,4.015,4.015,0,0,1-3.222-1.23c-1.5-1.514-2.928-5.289-2.43-11.342a27.743,27.743,0,0,1,1.461-7.113c1.461-3.829,3.545-4.486,5.035-4.362,1.923.159,3.316,1.82,4.152,4.945q-.05-.621-.114-1.273c-.4-4.069-2.645-6.118-4.56-6.3-1.892-.181-3.5,1.358-4.318,4.112a125.321,125.321,0,0,0-2.421,13.413C289.23,155.253,288.012,163.347,286.194,171.134Zm-61.894,6.5a2.96,2.96,0,0,0,.274.369,6.7,6.7,0,0,0,5.7,2.4c2.6-.262,5-2.11,6.779-5.2a14.164,14.164,0,0,0,1.52-7.736A26.989,26.989,0,0,0,224.3,177.63Zm55.163-3.774a35.789,35.789,0,0,1,3.611,2.782c.441-1.539.852-3.109,1.237-4.7q-1.291-.732-2.674-1.433-.773-.392-1.528-.754C279.935,171.135,279.723,172.51,279.462,173.856Zm-42.339-15.442a19.9,19.9,0,0,1-2.633.211,15.71,15.71,0,0,0-6.519,1.269c-3.047,1.426-4.281,4.584-4.781,6.982a18.914,18.914,0,0,0,.355,9.035,28.255,28.255,0,0,1,14.9-10.128A62.941,62.941,0,0,0,237.123,158.414Zm22.632,7.669a57.7,57.7,0,0,1,15.527,5.287q1.383.724,2.657,1.505.331-1.815.579-3.86C270.383,165.355,263.809,164.315,259.755,166.083Zm4.549-2.474c4.736,0,10.122,1.824,14.4,3.7q.3-2.974.438-6.394c.164-3.987.46-8.059.775-12.369.583-7.992,1.244-17.051,1.111-27.291-.127-9.822-.481-18.871-3.374-21.671a3.056,3.056,0,0,0-2.284-.885c-4.041.078-5.866,3.911-6.3,13.23-.346,7.419-1.465,23.991-1.959,30.073-1.1,13.488-3.158,19.77-6.492,19.77a2.781,2.781,0,0,1-2.086-.805c-1.427-1.475-1.32-4.729-1.107-11.212.051-1.553.109-3.314.152-5.256.178-8.084.272-21.271-.122-31.853a5.7,5.7,0,0,1-2.127,2.249,4.772,4.772,0,0,1-5.106-.372c-2.611-1.838-4.981-6.825-3.8-15.312,1.02-7.326,4.086-8.12,5.363-8.12h0c2.765,0,5.205,3.2,6.188,7.932a32.857,32.857,0,0,0-.987-5.528c-1.009-3.753-2.965-5.932-5.367-5.977h-.076a5.09,5.09,0,0,0-4.639,3.68c-1.12,3.612-1.331,13.513-1.5,21.468-.059,2.743-.114,5.335-.2,7.545-.2,5.086-1.316,30.7-4.108,35.51a5.168,5.168,0,0,1-2.4,2.237,66.855,66.855,0,0,1,1.358,7.45,29.135,29.135,0,0,1,5.359-.584,68.74,68.74,0,0,1,11.835.826,8.944,8.944,0,0,1,1.513-.918A12.714,12.714,0,0,1,264.3,163.609Zm32.912-28.557c-1.269,0-2.338,1.115-3.178,3.317a26.635,26.635,0,0,0-1.359,6.661c-.373,4.528.4,8.473,1.958,10.048a2.351,2.351,0,0,0,1.933.748,3.837,3.837,0,0,0,2.758-1.459,9.246,9.246,0,0,0,1.637-3.405c.266-9.863-1-15.69-3.566-15.9C297.338,135.054,297.277,135.052,297.216,135.052Zm-69.654-4.109a3.151,3.151,0,0,0-2.206.978c-1.824,1.752-3.069,5.779-3.1,10.02-.025,3.977,1.014,7.383,2.782,9.113a4.345,4.345,0,0,0,3.277,1.295,3.822,3.822,0,0,0,2.784-1.314c1.646-1.761,2.6-5.043,3.119-8.954-1.629-9.54-2.738-11.006-6.563-11.136Zm24.227-38.212c-1.354,0-3.045,1.76-3.733,6.7-.675,4.851-.265,11.36,3.116,13.739a3.1,3.1,0,0,0,3.395.26c1.066-.559,2.055-2.257,2.716-4.68-.169-3.145-.393-5.92-.687-8.072-.533-3.9-2.476-7.945-4.806-7.948Z" transform="translate(0 0)"/>
  </g>
</svg>
