<svg xmlns="http://www.w3.org/2000/svg" xmlns:xlink="http://www.w3.org/1999/xlink" width="518" height="168.393" viewBox="0 0 518 168.393">
  <defs>
    <filter id="Path_1197" x="0" y="87" width="243.02" height="81.393" filterUnits="userSpaceOnUse">
      <feOffset dy="10" input="SourceAlpha"/>
      <feGaussianBlur stdDeviation="3" result="blur"/>
      <feFlood flood-opacity="0.161"/>
      <feComposite operator="in" in2="blur"/>
      <feComposite in="SourceGraphic"/>
    </filter>
    <filter id="Path_1198" x="0" y="0" width="305" height="81" filterUnits="userSpaceOnUse">
      <feOffset dy="10" input="SourceAlpha"/>
      <feGaussianBlur stdDeviation="3" result="blur-2"/>
      <feFlood flood-opacity="0.161"/>
      <feComposite operator="in" in2="blur-2"/>
      <feComposite in="SourceGraphic"/>
    </filter>
    <filter id="Path_1199" x="302" y="3" width="216" height="76" filterUnits="userSpaceOnUse">
      <feOffset dy="10" input="SourceAlpha"/>
      <feGaussianBlur stdDeviation="3" result="blur-3"/>
      <feFlood flood-opacity="0.161"/>
      <feComposite operator="in" in2="blur-3"/>
      <feComposite in="SourceGraphic"/>
    </filter>
    <filter id="Path_1197-2" x="242.832" y="86.869" width="184.381" height="81.393" filterUnits="userSpaceOnUse">
      <feOffset dy="10" input="SourceAlpha"/>
      <feGaussianBlur stdDeviation="3" result="blur-4"/>
      <feFlood flood-opacity="0.161"/>
      <feComposite operator="in" in2="blur-4"/>
      <feComposite in="SourceGraphic"/>
    </filter>
  </defs>
  <g id="Group_655" data-name="Group 655" transform="translate(-374 -1747)">
    <g id="Group_649" data-name="Group 649" transform="translate(383.437 1746.948)">
      <g id="Component_15_1" data-name="Component 15 – 1" transform="translate(-0.437 87.052)">
        <g transform="matrix(1, 0, 0, 1, -9, -87)" filter="url(#Path_1197)">
          <path id="Path_1197-3" data-name="Path 1197" d="M31.2,0H193.824a31.2,31.2,0,0,1,0,62.393H31.2A31.2,31.2,0,0,1,31.2,0Z" transform="translate(9 87)" fill="#f4f4f4" opacity="0.487"/>
        </g>
        <path id="Path_1226" data-name="Path 1226" d="M2.64,0V-21.36h13.2v2.07H5.07v7.41H15.24v2.07H5.07V0ZM32.22-15.09V0h-2.4V-2.73A4.783,4.783,0,0,1,27.825-.555a6.136,6.136,0,0,1-3.1.765,6.444,6.444,0,0,1-3.525-.96,6.294,6.294,0,0,1-2.34-2.715A9.533,9.533,0,0,1,18.03-7.56a9.586,9.586,0,0,1,.84-4.125,6.562,6.562,0,0,1,2.355-2.775,6.244,6.244,0,0,1,3.5-.99,5.961,5.961,0,0,1,3.09.78,5.074,5.074,0,0,1,2.01,2.19v-2.61ZM25.2-1.8a4.109,4.109,0,0,0,3.42-1.515,6.788,6.788,0,0,0,1.2-4.305,6.722,6.722,0,0,0-1.2-4.29,4.126,4.126,0,0,0-3.42-1.5,4.2,4.2,0,0,0-3.465,1.545,6.688,6.688,0,0,0-1.245,4.3A6.553,6.553,0,0,0,21.72-3.3,4.246,4.246,0,0,0,25.2-1.8ZM50.28,0H47.1L39.36-7.26V0H36.93V-22.08h2.43V-8.16l7.11-6.9h3.09L42-7.83ZM64.74-7.62H53.67a6.477,6.477,0,0,0,1.335,4.35A4.808,4.808,0,0,0,58.8-1.8a7.626,7.626,0,0,0,4.86-1.77l.81,1.77A7.033,7.033,0,0,1,61.935-.33,9.527,9.527,0,0,1,58.77.21a7.347,7.347,0,0,1-5.55-2.085A7.889,7.889,0,0,1,51.21-7.59a8.974,8.974,0,0,1,.9-4.095,6.714,6.714,0,0,1,2.52-2.775,6.933,6.933,0,0,1,3.69-.99,5.917,5.917,0,0,1,4.71,1.965A7.974,7.974,0,0,1,64.74-8.07Zm-6.39-5.94a4.251,4.251,0,0,0-3.075,1.14A5.507,5.507,0,0,0,53.76-9.21h8.79a5.163,5.163,0,0,0-1.245-3.24A3.9,3.9,0,0,0,58.35-13.56Zm30.54-1.53V0H86.52V-2.61a4.974,4.974,0,0,1-2.01,2.1A5.868,5.868,0,0,1,81.6.21a5.231,5.231,0,0,1-4.05-1.5,6.349,6.349,0,0,1-1.38-4.44v-9.36H78.6v9.3a4.478,4.478,0,0,0,.84,3,3.21,3.21,0,0,0,2.55.96,4.245,4.245,0,0,0,3.24-1.3A4.8,4.8,0,0,0,86.46-6.57v-8.52ZM98.67.21a8.817,8.817,0,0,1-6.03-1.95l.81-1.8a8.37,8.37,0,0,0,2.49,1.38,8.886,8.886,0,0,0,2.82.42,4.725,4.725,0,0,0,2.6-.585,1.907,1.907,0,0,0,.885-1.695,1.842,1.842,0,0,0-.6-1.44,4.377,4.377,0,0,0-1.98-.84l-2.55-.6a5.624,5.624,0,0,1-2.925-1.5,3.6,3.6,0,0,1-1.035-2.58A3.91,3.91,0,0,1,94.74-14.2a6.622,6.622,0,0,1,4.2-1.245,8.752,8.752,0,0,1,3,.51,6.35,6.35,0,0,1,2.37,1.47l-.81,1.77a7.014,7.014,0,0,0-4.56-1.77,4.353,4.353,0,0,0-2.5.615,1.981,1.981,0,0,0-.885,1.725,1.956,1.956,0,0,0,.555,1.47,3.858,3.858,0,0,0,1.785.84l2.55.63A6.408,6.408,0,0,1,103.56-6.7a3.522,3.522,0,0,1,1.02,2.625,3.684,3.684,0,0,1-1.59,3.12A7.143,7.143,0,0,1,98.67.21Zm22.41-7.83H110.01a6.477,6.477,0,0,0,1.335,4.35A4.808,4.808,0,0,0,115.14-1.8,7.626,7.626,0,0,0,120-3.57l.81,1.77a7.033,7.033,0,0,1-2.535,1.47,9.527,9.527,0,0,1-3.165.54,7.347,7.347,0,0,1-5.55-2.085,7.889,7.889,0,0,1-2.01-5.715,8.974,8.974,0,0,1,.9-4.095,6.714,6.714,0,0,1,2.52-2.775,6.933,6.933,0,0,1,3.69-.99,5.917,5.917,0,0,1,4.71,1.965,7.974,7.974,0,0,1,1.71,5.415Zm-6.39-5.94a4.251,4.251,0,0,0-3.075,1.14A5.507,5.507,0,0,0,110.1-9.21h8.79a5.163,5.163,0,0,0-1.245-3.24A3.9,3.9,0,0,0,114.69-13.56Zm17.1-1.89a5.01,5.01,0,0,1,1.38.18l-.06,2.22a4.832,4.832,0,0,0-1.59-.24,3.872,3.872,0,0,0-3.255,1.365A5.225,5.225,0,0,0,127.2-8.61V0h-2.43V-10.86a33.8,33.8,0,0,0-.24-4.23h2.31l.24,2.79a4.591,4.591,0,0,1,1.83-2.34A5.209,5.209,0,0,1,131.79-15.45ZM140.58.21a8.817,8.817,0,0,1-6.03-1.95l.81-1.8a8.37,8.37,0,0,0,2.49,1.38,8.886,8.886,0,0,0,2.82.42,4.725,4.725,0,0,0,2.6-.585,1.907,1.907,0,0,0,.885-1.695,1.842,1.842,0,0,0-.6-1.44,4.377,4.377,0,0,0-1.98-.84l-2.55-.6A5.624,5.624,0,0,1,136.1-8.4a3.6,3.6,0,0,1-1.035-2.58,3.91,3.91,0,0,1,1.59-3.225,6.622,6.622,0,0,1,4.2-1.245,8.752,8.752,0,0,1,3,.51,6.35,6.35,0,0,1,2.37,1.47l-.81,1.77a7.014,7.014,0,0,0-4.56-1.77,4.353,4.353,0,0,0-2.505.615,1.981,1.981,0,0,0-.885,1.725,1.956,1.956,0,0,0,.555,1.47,3.858,3.858,0,0,0,1.785.84l2.55.63A6.408,6.408,0,0,1,145.47-6.7a3.522,3.522,0,0,1,1.02,2.625A3.684,3.684,0,0,1,144.9-.96,7.143,7.143,0,0,1,140.58.21Z" transform="translate(19 39)" fill="#8d8d8d"/>
        <ellipse id="Ellipse_116" data-name="Ellipse 116" cx="31.5" cy="31" rx="31.5" ry="31" transform="translate(104)" fill="none"/>
        <path id="ic_close_24px" d="M28.581,7.375,26.206,5,16.79,14.416,7.375,5,5,7.375l9.416,9.416L5,26.206l2.375,2.375,9.416-9.416,9.416,9.416,2.375-2.375L19.165,16.79Z" transform="translate(176.28 14.319)" fill="#8d8d8d"/>
      </g>
      <g id="Component_15_2" data-name="Component 15 – 2" transform="translate(-0.437 0.052)">
        <g transform="matrix(1, 0, 0, 1, -9, 0)" filter="url(#Path_1198)">
          <path id="Path_1198-2" data-name="Path 1198" d="M31,0H256a31,31,0,0,1,0,62H31A31,31,0,0,1,31,0Z" transform="translate(9)" fill="#f4f4f4" opacity="0.5"/>
        </g>
        <path id="Path_1225" data-name="Path 1225" d="M2.64,0V-21.36H5.1V-2.1H15.81V0ZM31.29-7.62H20.22a6.477,6.477,0,0,0,1.335,4.35A4.808,4.808,0,0,0,25.35-1.8a7.626,7.626,0,0,0,4.86-1.77l.81,1.77A7.033,7.033,0,0,1,28.485-.33,9.527,9.527,0,0,1,25.32.21a7.347,7.347,0,0,1-5.55-2.085A7.889,7.889,0,0,1,17.76-7.59a8.974,8.974,0,0,1,.9-4.095,6.714,6.714,0,0,1,2.52-2.775,6.933,6.933,0,0,1,3.69-.99,5.917,5.917,0,0,1,4.71,1.965A7.974,7.974,0,0,1,31.29-8.07ZM24.9-13.56a4.251,4.251,0,0,0-3.075,1.14A5.507,5.507,0,0,0,20.31-9.21H29.1a5.163,5.163,0,0,0-1.245-3.24A3.9,3.9,0,0,0,24.9-13.56Zm30.42-1.53h2.4L52.14,0H49.8L45.48-11.79,41.19,0H38.85L33.27-15.09h2.55L40.08-2.91l4.41-12.18h2.13L50.97-2.88Zm18.66-6.99V0h-2.4V-2.73a4.783,4.783,0,0,1-2,2.175A6.136,6.136,0,0,1,66.48.21a6.244,6.244,0,0,1-3.495-.99A6.562,6.562,0,0,1,60.63-3.555a9.586,9.586,0,0,1-.84-4.125,9.533,9.533,0,0,1,.825-4.1A6.26,6.26,0,0,1,62.97-14.49a6.464,6.464,0,0,1,3.51-.96,6.053,6.053,0,0,1,3.09.765,4.836,4.836,0,0,1,1.98,2.145v-9.54ZM66.96-1.8a4.109,4.109,0,0,0,3.42-1.515,6.788,6.788,0,0,0,1.2-4.305,6.734,6.734,0,0,0-1.2-4.275,4.109,4.109,0,0,0-3.42-1.515,4.256,4.256,0,0,0-3.465,1.5A6.446,6.446,0,0,0,62.25-7.68a6.74,6.74,0,0,0,1.245,4.335A4.2,4.2,0,0,0,66.96-1.8Zm40.08-13.29h2.4L103.86,0h-2.34L97.2-11.79,92.91,0H90.57L84.99-15.09h2.55L91.8-2.91l4.41-12.18h2.13l4.35,12.21ZM118.65.21a7.216,7.216,0,0,1-3.75-.96,6.437,6.437,0,0,1-2.505-2.73,9.148,9.148,0,0,1-.885-4.14,9.148,9.148,0,0,1,.885-4.14,6.437,6.437,0,0,1,2.505-2.73,7.216,7.216,0,0,1,3.75-.96,7.216,7.216,0,0,1,3.75.96,6.437,6.437,0,0,1,2.5,2.73,9.148,9.148,0,0,1,.885,4.14,9.148,9.148,0,0,1-.885,4.14,6.437,6.437,0,0,1-2.5,2.73A7.216,7.216,0,0,1,118.65.21Zm0-2.01a4.178,4.178,0,0,0,3.45-1.485,6.766,6.766,0,0,0,1.2-4.335,6.617,6.617,0,0,0-1.23-4.275,4.161,4.161,0,0,0-3.42-1.515,4.194,4.194,0,0,0-3.45,1.515,6.617,6.617,0,0,0-1.23,4.275,6.706,6.706,0,0,0,1.215,4.335A4.222,4.222,0,0,0,118.65-1.8Zm17.94-13.65a5.01,5.01,0,0,1,1.38.18l-.06,2.22a4.832,4.832,0,0,0-1.59-.24,3.872,3.872,0,0,0-3.255,1.365A5.225,5.225,0,0,0,132-8.61V0h-2.43V-10.86a33.8,33.8,0,0,0-.24-4.23h2.31l.24,2.79a4.591,4.591,0,0,1,1.83-2.34A5.209,5.209,0,0,1,136.59-15.45Zm16.83-6.63V0h-2.4V-2.73a4.783,4.783,0,0,1-1.995,2.175,6.136,6.136,0,0,1-3.1.765,6.244,6.244,0,0,1-3.5-.99,6.562,6.562,0,0,1-2.355-2.775,9.587,9.587,0,0,1-.84-4.125,9.533,9.533,0,0,1,.825-4.1,6.26,6.26,0,0,1,2.355-2.715,6.464,6.464,0,0,1,3.51-.96,6.053,6.053,0,0,1,3.09.765,4.836,4.836,0,0,1,1.98,2.145v-9.54ZM146.4-1.8a4.109,4.109,0,0,0,3.42-1.515,6.788,6.788,0,0,0,1.2-4.305,6.734,6.734,0,0,0-1.2-4.275,4.109,4.109,0,0,0-3.42-1.515,4.256,4.256,0,0,0-3.465,1.5,6.446,6.446,0,0,0-1.245,4.23,6.74,6.74,0,0,0,1.245,4.335A4.2,4.2,0,0,0,146.4-1.8ZM163.23.21a8.817,8.817,0,0,1-6.03-1.95l.81-1.8a8.37,8.37,0,0,0,2.49,1.38,8.886,8.886,0,0,0,2.82.42,4.725,4.725,0,0,0,2.6-.585A1.907,1.907,0,0,0,166.8-4.02a1.842,1.842,0,0,0-.6-1.44,4.377,4.377,0,0,0-1.98-.84l-2.55-.6a5.624,5.624,0,0,1-2.925-1.5,3.6,3.6,0,0,1-1.035-2.58A3.91,3.91,0,0,1,159.3-14.2a6.622,6.622,0,0,1,4.2-1.245,8.752,8.752,0,0,1,3,.51,6.35,6.35,0,0,1,2.37,1.47l-.81,1.77a7.014,7.014,0,0,0-4.56-1.77,4.353,4.353,0,0,0-2.505.615,1.981,1.981,0,0,0-.885,1.725,1.956,1.956,0,0,0,.555,1.47,3.858,3.858,0,0,0,1.785.84l2.55.63A6.408,6.408,0,0,1,168.12-6.7a3.522,3.522,0,0,1,1.02,2.625,3.684,3.684,0,0,1-1.59,3.12A7.143,7.143,0,0,1,163.23.21Z" transform="translate(27 39)" fill="#8d8d8d"/>
        <ellipse id="Ellipse_116-2" data-name="Ellipse 116" cx="31.5" cy="31" rx="31.5" ry="31" transform="translate(224)" fill="#cc0806" opacity="0.5"/>
        <path id="ic_close_24px-2" data-name="ic_close_24px" d="M28.782,7.4,26.387,5l-9.5,9.5L7.4,5,5,7.4l9.5,9.5L5,26.387l2.4,2.4,9.5-9.5,9.5,9.5,2.4-2.4-9.5-9.5Z" transform="translate(237.66 14.319)" fill="#fff"/>
      </g>
    </g>
    <g id="Group_650" data-name="Group 650" transform="translate(685.371 1749.693)">
      <g id="Component_15_4" data-name="Component 15 – 4" transform="translate(-0.371 0.307)">
        <g transform="matrix(1, 0, 0, 1, -311, -3)" filter="url(#Path_1199)">
          <path id="Path_1199-2" data-name="Path 1199" d="M28.5,0h141a28.5,28.5,0,0,1,0,57H28.5a28.5,28.5,0,0,1,0-57Z" transform="translate(311 3)" fill="#f4f4f4" opacity="0.5"/>
        </g>
        <path id="Path_1224" data-name="Path 1224" d="M9.42.24a11.41,11.41,0,0,1-7.98-2.7l.93-1.89A10.175,10.175,0,0,0,5.61-2.43a11.758,11.758,0,0,0,3.84.57,6.727,6.727,0,0,0,3.975-1A3.29,3.29,0,0,0,14.82-5.7a2.374,2.374,0,0,0-.675-1.755,4.676,4.676,0,0,0-1.77-1.065A27.178,27.178,0,0,0,9.45-9.33,26.888,26.888,0,0,1,5.4-10.5a6.321,6.321,0,0,1-2.58-1.815,4.682,4.682,0,0,1-.99-3.105,5.55,5.55,0,0,1,.96-3.225A6.309,6.309,0,0,1,5.505-20.82,10.006,10.006,0,0,1,9.6-21.6a12.152,12.152,0,0,1,4.14.69,8.637,8.637,0,0,1,3.24,2.01l-.96,1.89a10.583,10.583,0,0,0-3.045-1.89A9.245,9.245,0,0,0,9.6-19.5a6.341,6.341,0,0,0-3.9,1.065A3.465,3.465,0,0,0,4.29-15.51a2.716,2.716,0,0,0,1.23,2.43A12.2,12.2,0,0,0,9.3-11.67q2.76.66,4.335,1.215a6.457,6.457,0,0,1,2.625,1.68A4.2,4.2,0,0,1,17.31-5.79a5.363,5.363,0,0,1-.96,3.165A6.175,6.175,0,0,1,13.605-.51,10.748,10.748,0,0,1,9.42.24ZM28.56-15.45a6.318,6.318,0,0,1,3.51.99,6.524,6.524,0,0,1,2.37,2.775,9.586,9.586,0,0,1,.84,4.125,9.387,9.387,0,0,1-.84,4.095A6.391,6.391,0,0,1,32.085-.75,6.444,6.444,0,0,1,28.56.21a5.961,5.961,0,0,1-3.09-.78,5.041,5.041,0,0,1-2.01-2.22V6.48H21.03V-10.86a33.8,33.8,0,0,0-.24-4.23H23.1l.24,2.91a4.957,4.957,0,0,1,2-2.415A5.949,5.949,0,0,1,28.56-15.45ZM28.11-1.8a4.169,4.169,0,0,0,3.435-1.5A6.61,6.61,0,0,0,32.76-7.56a6.745,6.745,0,0,0-1.23-4.3,4.127,4.127,0,0,0-3.42-1.545,4.16,4.16,0,0,0-3.45,1.5,6.722,6.722,0,0,0-1.2,4.29,6.788,6.788,0,0,0,1.2,4.305A4.142,4.142,0,0,0,28.11-1.8ZM52.32-15.09V0h-2.4V-2.73A4.783,4.783,0,0,1,47.925-.555a6.136,6.136,0,0,1-3.1.765,6.444,6.444,0,0,1-3.525-.96,6.294,6.294,0,0,1-2.34-2.715A9.533,9.533,0,0,1,38.13-7.56a9.586,9.586,0,0,1,.84-4.125,6.562,6.562,0,0,1,2.355-2.775,6.245,6.245,0,0,1,3.5-.99,5.961,5.961,0,0,1,3.09.78,5.074,5.074,0,0,1,2.01,2.19v-2.61ZM45.3-1.8a4.109,4.109,0,0,0,3.42-1.515,6.788,6.788,0,0,0,1.2-4.305,6.722,6.722,0,0,0-1.2-4.29,4.126,4.126,0,0,0-3.42-1.5,4.2,4.2,0,0,0-3.465,1.545,6.688,6.688,0,0,0-1.245,4.3A6.553,6.553,0,0,0,41.82-3.3,4.246,4.246,0,0,0,45.3-1.8ZM73.77-15.45q5.01,0,5.01,5.97V0H76.35V-9.36a5.127,5.127,0,0,0-.735-3.09,2.814,2.814,0,0,0-2.385-.96,3.7,3.7,0,0,0-3,1.29,5.3,5.3,0,0,0-1.08,3.51V0H66.72V-9.36a5.058,5.058,0,0,0-.75-3.075,2.837,2.837,0,0,0-2.4-.975,3.744,3.744,0,0,0-3.015,1.29,5.249,5.249,0,0,0-1.1,3.51V0H57.03V-10.86a33.8,33.8,0,0,0-.24-4.23H59.1l.24,2.64a4.824,4.824,0,0,1,1.875-2.22,5.338,5.338,0,0,1,2.9-.78,5.426,5.426,0,0,1,2.94.72,4.193,4.193,0,0,1,1.68,2.22,5.225,5.225,0,0,1,2.025-2.145A5.779,5.779,0,0,1,73.77-15.45ZM88.5.21a8.817,8.817,0,0,1-6.03-1.95l.81-1.8a8.37,8.37,0,0,0,2.49,1.38,8.886,8.886,0,0,0,2.82.42,4.725,4.725,0,0,0,2.6-.585A1.907,1.907,0,0,0,92.07-4.02a1.842,1.842,0,0,0-.6-1.44,4.377,4.377,0,0,0-1.98-.84l-2.55-.6a5.624,5.624,0,0,1-2.925-1.5,3.6,3.6,0,0,1-1.035-2.58A3.91,3.91,0,0,1,84.57-14.2a6.622,6.622,0,0,1,4.2-1.245,8.752,8.752,0,0,1,3,.51,6.35,6.35,0,0,1,2.37,1.47l-.81,1.77a7.014,7.014,0,0,0-4.56-1.77,4.353,4.353,0,0,0-2.5.615,1.981,1.981,0,0,0-.885,1.725,1.956,1.956,0,0,0,.555,1.47,3.858,3.858,0,0,0,1.785.84l2.55.63A6.408,6.408,0,0,1,93.39-6.7,3.522,3.522,0,0,1,94.41-4.08,3.684,3.684,0,0,1,92.82-.96,7.143,7.143,0,0,1,88.5.21Z" transform="translate(22 37)" fill="#8d8d8d"/>
        <ellipse id="Ellipse_116-3" data-name="Ellipse 116" cx="31" cy="28.5" rx="31" ry="28.5" transform="translate(136)" fill="#f9f9f9" opacity="0.5"/>
        <path id="ic_close_24px-3" data-name="ic_close_24px" d="M28.466,7.363,26.1,5l-9.37,9.37L7.363,5,5,7.363l9.37,9.37L5,26.1l2.363,2.363,9.37-9.37,9.37,9.37L28.466,26.1l-9.37-9.37Z" transform="translate(149.351 11.582)" fill="#8d8d8d"/>
      </g>
    </g>
    <g id="Component_15_5" data-name="Component 15 – 5" transform="translate(625.832 1833.869)">
      <g transform="matrix(1, 0, 0, 1, -251.83, -86.87)" filter="url(#Path_1197-2)">
        <path id="Path_1197-4" data-name="Path 1197" d="M31.2,0H135.185a31.2,31.2,0,1,1,0,62.393H31.2A31.2,31.2,0,0,1,31.2,0Z" transform="translate(251.83 86.87)" fill="#f4f4f4" opacity="0.487"/>
      </g>
      <path id="Path_1227" data-name="Path 1227" d="M14.76-10.98a5.224,5.224,0,0,1,2.85,1.845A5.3,5.3,0,0,1,18.63-5.82a5.236,5.236,0,0,1-1.86,4.305A8.108,8.108,0,0,1,11.52,0H2.64V-21.36h8.58a7.934,7.934,0,0,1,5.085,1.455A4.983,4.983,0,0,1,18.12-15.78a4.967,4.967,0,0,1-.885,2.955A5.19,5.19,0,0,1,14.76-10.98Zm-9.69-.9h5.76a5.822,5.822,0,0,0,3.63-.96,3.36,3.36,0,0,0,1.23-2.82q0-3.66-4.86-3.66H5.07Zm6.24,9.84a5.917,5.917,0,0,0,3.7-.945A3.479,3.479,0,0,0,16.2-5.88q0-3.93-4.89-3.93H5.07v7.77ZM29.01.21a7.216,7.216,0,0,1-3.75-.96,6.437,6.437,0,0,1-2.5-2.73,9.148,9.148,0,0,1-.885-4.14,9.148,9.148,0,0,1,.885-4.14,6.437,6.437,0,0,1,2.5-2.73,7.216,7.216,0,0,1,3.75-.96,7.216,7.216,0,0,1,3.75.96,6.437,6.437,0,0,1,2.5,2.73,9.148,9.148,0,0,1,.885,4.14,9.148,9.148,0,0,1-.885,4.14,6.437,6.437,0,0,1-2.5,2.73A7.216,7.216,0,0,1,29.01.21Zm0-2.01a4.178,4.178,0,0,0,3.45-1.485,6.766,6.766,0,0,0,1.2-4.335,6.617,6.617,0,0,0-1.23-4.275,4.161,4.161,0,0,0-3.42-1.515,4.194,4.194,0,0,0-3.45,1.515A6.617,6.617,0,0,0,24.33-7.62a6.706,6.706,0,0,0,1.215,4.335A4.222,4.222,0,0,0,29.01-1.8ZM43.14-13.17v8.25a3.232,3.232,0,0,0,.69,2.355,2.672,2.672,0,0,0,1.95.675,4.917,4.917,0,0,0,1.62-.27V-.09a6.826,6.826,0,0,1-2.1.3A4.562,4.562,0,0,1,41.925-1,4.861,4.861,0,0,1,40.71-4.59v-8.58H37.77v-1.92h2.94v-3.87l2.43-.87v4.74h4.32v1.92ZM55.5.21a8.817,8.817,0,0,1-6.03-1.95l.81-1.8a8.37,8.37,0,0,0,2.49,1.38,8.886,8.886,0,0,0,2.82.42,4.725,4.725,0,0,0,2.6-.585A1.907,1.907,0,0,0,59.07-4.02a1.842,1.842,0,0,0-.6-1.44,4.377,4.377,0,0,0-1.98-.84l-2.55-.6a5.624,5.624,0,0,1-2.925-1.5,3.6,3.6,0,0,1-1.035-2.58A3.91,3.91,0,0,1,51.57-14.2a6.622,6.622,0,0,1,4.2-1.245,8.752,8.752,0,0,1,3,.51,6.35,6.35,0,0,1,2.37,1.47l-.81,1.77a7.014,7.014,0,0,0-4.56-1.77,4.353,4.353,0,0,0-2.505.615,1.981,1.981,0,0,0-.885,1.725,1.956,1.956,0,0,0,.555,1.47,3.858,3.858,0,0,0,1.785.84l2.55.63A6.408,6.408,0,0,1,60.39-6.7,3.522,3.522,0,0,1,61.41-4.08,3.684,3.684,0,0,1,59.82-.96,7.143,7.143,0,0,1,55.5.21Z" transform="translate(25.168 39.131)" fill="#8d8d8d"/>
      <circle id="Ellipse_116-4" data-name="Ellipse 116" cx="31" cy="31" r="31" transform="translate(104.168 0.131)" fill="none"/>
      <path id="ic_close_24px-4" data-name="ic_close_24px" d="M28.581,7.375,26.206,5,16.79,14.416,7.375,5,5,7.375l9.416,9.416L5,26.206l2.375,2.375,9.416-9.416,9.416,9.416,2.375-2.375L19.165,16.79Z" transform="translate(117.28 14.319)" fill="#8d8d8d"/>
    </g>
  </g>
</svg>
